<?xml version="1.0" encoding="utf-8"?>
<!-- Generator: Adobe Illustrator 23.1.1, SVG Export Plug-In . SVG Version: 6.00 Build 0)  -->
<svg version="1.1" id="Layer_1" xmlns="http://www.w3.org/2000/svg" xmlns:xlink="http://www.w3.org/1999/xlink" x="0px" y="0px"
	 viewBox="0 0 164 52" style="enable-background:new 0 0 164 52;" xml:space="preserve">
<style type="text/css">
	.st0{fill:#FFFFFF;}
	.st1{fill:#006FCF;}
</style>
<title>Group</title>
<desc>Created with Sketch.</desc>
<g id="Symbols">
	<g id="OptionA_x2F_Nav_x5F_FR" transform="translate(-135.000000, -17.000000)">
		<g id="Group" transform="translate(135.000000, 17.000000)">
			<g id="axp_bbl_alt_mr_rgb_smsc">
				<polygon id="Rectangle-path" class="st0" points="0,0 52,0 52,52 0,52 				"/>
				<g id="axp_bb_alt_logo_sm_noreg_cmyk_pe">
					<path id="Shape" class="st1" d="M48.1,34.2l3.9,4v-8L48.1,34.2L48.1,34.2z M21.7,27.3v13.9h11.7v-3h-8.2v-2.5h7.9v-2.9h-7.9
						v-2.5h8.1v-2.9L21.7,27.3L21.7,27.3z M46.5,27.3l-4.3,4.5L38,27.3h-4.6l6.6,7l-6.6,6.9h4.5l4.3-4.6l4.3,4.6h4.6l-6.6-7l6.6-6.9
						C51.1,27.3,46.5,27.3,46.5,27.3z M24,15.9l0.8-2.1l0.8,2.1l1.3,3.2h-4.3L24,15.9L24,15.9z M46.4,10.9l-2.5,6l-1.2,3l-1.2-3
						l-2.5-6h-5.6v13.9l-6.1-13.9h-4.8l-6.2,13.9h4l1.1-2.7h6.7l1.1,2.7h7.6v-8.4v-2l0.8,2l3.4,8.4h3.1l3.4-8.4l0.8-2v2v8.4H52V10.9
						H46.4z M0,0v52h52v-8.2h-6.9l-3-3.2l-3,3.2H18.9V27.3h-6.7l8.4-19h8l2.3,5v-5h9.6l2.1,5.4l2.2-5.4H52V0H0z"/>
				</g>
			</g>
			<path id="privilèges" class="st0" d="M72.7,46.2h-2.3V32.3h2.3v1.3c0.7-0.8,1.7-1.5,3.2-1.5c2.3,0,4,1.7,4,5.2s-1.7,5.2-4.3,5.2
				c-1.1,0-2.2-0.4-2.9-1.3C72.7,41.2,72.7,46.2,72.7,46.2z M75.1,40.7c1.8,0,2.5-1.1,2.5-3.3c0-2.1-0.9-3.3-2.4-3.3
				c-1,0-1.9,0.6-2.5,1.3v4.1C73.4,40.3,74.3,40.7,75.1,40.7z M84.7,42.4h-2.3V32.3h2.3V34l0,0c0.6-1,1.7-1.8,3.6-1.8h0.2l-0.1,2.2
				c-0.1,0-0.5,0-0.6,0c-1.5,0-2.5,0.7-3.1,1.8V42.4z M93.1,42.4h-2.4V32.3h2.4V42.4z M93.1,30.5h-2.4v-2h2.4V30.5z M101.1,42.4
				h-2.4L95,32.3h2.5l2.5,7.5l0,0l2.5-7.5h2.3L101.1,42.4z M109.1,42.4h-2.4V32.3h2.4V42.4z M109.1,30.5h-2.4v-2h2.4V30.5z
				 M114.6,42.4h-2.4V28.3h2.4V42.4z M122,42.6c-2.5,0-4.9-1.5-4.9-5.3c0-3.9,2.7-5.3,4.8-5.3c2.3,0,4.4,1.4,4.4,5.5v0.6h-6.9
				c0.1,1.8,1.2,2.6,2.7,2.6c1.3,0,2.1-0.4,2.8-1.2l1.2,1.2C125.2,42,123.8,42.6,122,42.6z M119.5,36.4h4.7
				c-0.1-1.5-0.9-2.4-2.3-2.4C120.8,34,119.7,34.7,119.5,36.4z M121.4,31.2l-2.8-3.2h2.5l1.8,3.2H121.4z M132.6,46.3
				c-3.5,0-4.9-1-4.9-2.5c0-1,0.6-1.7,1.7-2.1c-0.5-0.3-0.8-0.7-0.8-1.2c0-0.8,0.6-1.4,1.4-1.8c-1-0.6-1.6-1.7-1.6-2.9
				c0-2.1,1.6-3.6,4.3-3.6c1.4,0,2.4,0.5,3.1,1.1c0.6-0.5,1.7-0.9,2.5-1v1.9c-0.5,0-1.1,0.1-1.8,0.3c0.2,0.4,0.4,0.8,0.4,1.4
				c0,2.1-1.6,3.6-4.2,3.6c-0.6,0-0.9-0.1-1.4-0.2c-0.3,0.2-0.5,0.4-0.5,0.6c0,0.4,0.3,0.5,1.2,0.6l1.8,0.1c3,0.2,4.2,1,4.2,2.8
				C137.9,45.3,135.8,46.3,132.6,46.3z M132.7,37.7c1.3,0,2-0.7,2-1.9c0-1.3-0.7-1.9-2.1-1.9c-1.3,0-2.1,0.7-2.1,1.9
				C130.6,37,131.4,37.7,132.7,37.7z M133,44.6c1.7,0,2.8-0.5,2.8-1.2s-0.5-1-2.6-1.1l-1.8-0.1c-0.2,0-0.4,0-0.6-0.1
				c-0.7,0.3-0.9,0.8-0.9,1.3C129.9,44.4,130.9,44.6,133,44.6z M144.3,42.6c-2.5,0-4.9-1.5-4.9-5.3c0-3.9,2.7-5.3,4.8-5.3
				c2.3,0,4.4,1.4,4.4,5.5v0.6h-6.9c0.1,1.8,1.2,2.6,2.7,2.6c1.3,0,2.1-0.4,2.8-1.2l1.2,1.2C147.5,42,146.1,42.6,144.3,42.6z
				 M141.8,36.4h4.7c-0.1-1.5-0.9-2.4-2.3-2.4C143.1,34,142.1,34.7,141.8,36.4z M154.8,42.6c-1.9,0-3.5-0.7-4.5-1.6l1.3-1.4
				c0.8,0.6,1.9,1.2,3.2,1.2s2-0.3,2-1.2c0-0.8-1-1.1-2.2-1.4c-1.7-0.4-3.8-0.9-3.8-3.2c0-1.8,1.5-3,3.8-3c1.9,0,3.1,0.6,4.2,1.4
				l-1.1,1.5c-0.7-0.6-1.9-1.1-2.9-1.1c-1.3,0-1.7,0.5-1.7,1c0,0.8,1,1.1,2.2,1.3c1.7,0.4,3.9,0.8,3.9,3.2
				C159.1,41.6,157.1,42.6,154.8,42.6z"/>
			<path id="Points-" class="st0" d="M70.9,24.3V10.2h4.7c3.1,0,4.9,1.3,4.9,3.9c0,2.8-2.1,4-5.1,4h-3.2v6.3h-1.3V24.3z M72.2,16.9
				h3.3c2.3,0,3.6-0.7,3.6-2.8c0-1.9-1.3-2.6-3.6-2.6h-3.3V16.9z M86.1,24.5c-2.5,0-4.6-1.9-4.6-5.2c0-3.4,2.1-5.2,4.6-5.2
				s4.5,1.9,4.5,5.2C90.7,22.6,88.6,24.5,86.1,24.5z M86.1,23.4c2,0,3.2-1.7,3.2-4.1c0-2.2-1.1-4.1-3.2-4.1c-2,0-3.2,1.7-3.2,4.1
				C82.9,21.5,84,23.4,86.1,23.4z M93.6,24.3v-10h1.3v10H93.6z M93.6,11.9v-1.4H95v1.4H93.6z M98.5,24.3v-10h1.3v1.6
				c1-1,2.2-1.8,3.8-1.8c2,0,3,1.1,3,3v7.3h-1.3v-7c0-1.4-0.6-2.1-2-2.1c-1.3,0-2.4,0.7-3.5,1.8v7.4h-1.3V24.3z M113.2,24.4
				c-1.9,0-2.6-0.7-2.6-2.5v-6.6h-1.8v-1.1h1.8v-3.6h1.3v3.6h2.6v1.1h-2.6v6.3c0,1.1,0.3,1.6,1.6,1.6c0.4,0,0.8,0,1-0.1v1.1
				C114.2,24.4,113.7,24.4,113.2,24.4z M120.3,24.5c-1.8,0-3.2-0.8-3.9-1.8l0.8-0.8c0.8,0.9,1.7,1.4,3.1,1.4c1.7,0,2.6-0.6,2.6-1.8
				c0-1.1-0.8-1.5-2.8-2c-2.3-0.6-3.5-1.2-3.5-2.9c0-1.4,1.2-2.6,3.4-2.6c1.7,0,2.8,0.6,3.7,1.4l-0.7,0.9c-0.8-0.8-1.7-1.2-2.9-1.2
				c-1.6,0-2.2,0.7-2.2,1.5c0,1,0.7,1.4,2.4,1.8c2.5,0.6,3.8,1.2,3.8,3.2C124.2,23.4,122.6,24.5,120.3,24.5z M126.8,18.9v-1.1h4.3
				v1.1H126.8z"/>
		</g>
	</g>
</g>
</svg>
