<?xml version="1.0" encoding="utf-8"?>
<!-- Generator: Adobe Illustrator 23.1.1, SVG Export Plug-In . SVG Version: 6.00 Build 0)  -->
<svg version="1.1" id="Layer_1" xmlns="http://www.w3.org/2000/svg" xmlns:xlink="http://www.w3.org/1999/xlink" x="0px" y="0px"
	 viewBox="0 0 120 35" style="enable-background:new 0 0 120 35;" xml:space="preserve">
<style type="text/css">
	.st0{fill:#00175A;}
</style>
<title>amex-membershiprewards-logo-footer_EN</title>
<desc>Created with Sketch.</desc>
<g>
	<path class="st0" d="M1.1,15.5V0.3h3.4l4,12l0,0l3.9-12h3.4v15.1h-2.5V4.2h-0.1c-0.2,0.5-0.4,1-0.6,1.5s-0.4,1-0.5,1.6l-2.9,8.3h-2
		L4.4,7.3C4.3,7,4.2,6.7,4.1,6.5S4,6,3.9,5.8C3.8,5.6,3.8,5.3,3.7,5S3.6,4.4,3.5,4l0,0v11.4H1.1V15.5z"/>
	<path class="st0" d="M18,10c0-0.7,0.1-1.3,0.2-1.8s0.4-1,0.6-1.4s0.6-0.8,0.9-1.1C20,5.4,20.4,5.2,20.8,5s0.8-0.3,1.2-0.4
		c0.4-0.1,0.8-0.1,1.2-0.1c0.4,0,0.8,0,1.2,0.1c0.4,0.1,0.8,0.2,1.1,0.4c0.4,0.2,0.7,0.4,1,0.7C26.7,6,27,6.3,27.2,6.8
		c0.2,0.4,0.4,0.9,0.5,1.5s0.2,1.2,0.2,2v0.6h-7.4c0,0.5,0.1,0.9,0.3,1.3c0.2,0.4,0.4,0.7,0.6,0.9c0.3,0.2,0.6,0.4,0.9,0.5
		s0.7,0.2,1.1,0.2s0.7,0,1-0.1s0.5-0.1,0.8-0.3c0.2-0.1,0.5-0.2,0.7-0.4s0.4-0.3,0.6-0.5l1.3,1.3c-0.6,0.6-1.2,1.1-2,1.4
		c-0.7,0.3-1.6,0.5-2.6,0.5c-0.7,0-1.3-0.1-2-0.3c-0.6-0.2-1.2-0.5-1.7-1s-0.9-1-1.2-1.8C18.1,11.9,18,11,18,10z M20.5,9h5.1
		c-0.1-0.8-0.3-1.4-0.7-1.9c-0.4-0.4-1-0.6-1.8-0.6c-0.3,0-0.6,0-0.9,0.1C22,6.7,21.7,6.8,21.5,7s-0.4,0.5-0.6,0.8
		C20.7,8.1,20.6,8.5,20.5,9z"/>
	<path class="st0" d="M29.8,15.5V4.6h2.5v1.5c0.2-0.2,0.4-0.4,0.7-0.6s0.5-0.4,0.9-0.5c0.3-0.2,0.6-0.3,1-0.4s0.7-0.1,1.2-0.1
		s0.8,0,1.2,0.1c0.3,0.1,0.6,0.2,0.8,0.4c0.2,0.2,0.4,0.3,0.6,0.6c0.2,0.2,0.3,0.5,0.4,0.7c0.2-0.2,0.5-0.5,0.7-0.7
		c0.3-0.2,0.6-0.4,0.9-0.6c0.3-0.2,0.7-0.3,1-0.4c0.4-0.1,0.8-0.1,1.2-0.1c0.6,0,1,0.1,1.4,0.2c0.4,0.2,0.7,0.4,1,0.7
		c0.3,0.3,0.4,0.6,0.6,1c0,0.3,0.1,0.8,0.1,1.3v7.8h-2.5V8.3c0-0.3,0-0.6-0.1-0.8c0-0.2-0.1-0.4-0.2-0.5c-0.1-0.1-0.3-0.2-0.5-0.3
		c-0.2-0.1-0.4-0.1-0.7-0.1c-0.5,0-1,0.1-1.4,0.4s-0.9,0.6-1.4,1v7.5h-2.5V8.3c0-0.3,0-0.6-0.1-0.8c0-0.2-0.1-0.4-0.2-0.5
		c-0.1-0.1-0.3-0.2-0.5-0.3c-0.2-0.1-0.4-0.1-0.7-0.1s-0.5,0-0.7,0.1S34,6.9,33.8,7c-0.2,0.1-0.5,0.3-0.7,0.4
		c-0.2,0.2-0.5,0.4-0.7,0.6v7.5H29.8z"/>
	<path class="st0" d="M48.2,15.5V0.3h2.5V6c0.2-0.2,0.4-0.4,0.6-0.6c0.2-0.2,0.5-0.4,0.8-0.5s0.6-0.3,0.9-0.4
		c0.3-0.1,0.7-0.1,1.1-0.1c0.6,0,1.2,0.1,1.7,0.3c0.5,0.2,1,0.6,1.4,1c0.4,0.5,0.7,1.1,0.9,1.8S58.4,9,58.4,10
		c0,0.9-0.1,1.8-0.3,2.5s-0.5,1.3-0.9,1.8s-0.9,0.8-1.5,1s-1.2,0.3-1.9,0.3c-0.6,0-1.2-0.1-1.7-0.3s-1-0.6-1.4-1v1.2H48.2z
		 M50.7,12.3c0.3,0.4,0.7,0.8,1.2,1s0.9,0.3,1.4,0.3c1,0,1.6-0.3,2.1-0.9c0.4-0.6,0.6-1.5,0.6-2.7s-0.2-2-0.7-2.6s-1.1-0.9-1.9-0.9
		c-0.3,0-0.5,0-0.8,0.1c-0.2,0.1-0.5,0.2-0.7,0.3c-0.2,0.1-0.4,0.3-0.6,0.4c-0.2,0.2-0.4,0.3-0.5,0.5L50.7,12.3L50.7,12.3z"/>
	<path class="st0" d="M59.8,10c0-0.7,0.1-1.3,0.2-1.8c0.1-0.5,0.4-1,0.6-1.4s0.6-0.8,0.9-1.1c0.3-0.3,0.7-0.5,1.1-0.7
		c0.4-0.2,0.8-0.3,1.2-0.4c0.4-0.1,0.8-0.1,1.2-0.1s0.8,0,1.2,0.1C66.6,4.7,67,4.8,67.3,5c0.4,0.2,0.7,0.4,1,0.7
		c0.3,0.3,0.6,0.7,0.8,1.1c0.2,0.4,0.4,0.9,0.5,1.5c0.1,0.6,0.2,1.2,0.2,2v0.6h-7.4c0,0.5,0.1,0.9,0.3,1.3c0.2,0.4,0.4,0.7,0.6,0.9
		c0.3,0.2,0.6,0.4,0.9,0.5c0.3,0.1,0.7,0.2,1.1,0.2s0.7,0,1-0.1s0.5-0.1,0.8-0.3c0.2-0.1,0.5-0.2,0.7-0.4s0.4-0.3,0.6-0.5l1.3,1.3
		c-0.6,0.6-1.2,1.1-2,1.4c-0.7,0.3-1.6,0.5-2.6,0.5c-0.7,0-1.3-0.1-2-0.3c-0.6-0.2-1.2-0.5-1.7-1s-0.9-1-1.2-1.8
		C60,11.9,59.8,11,59.8,10z M62.4,9h5.1c-0.1-0.8-0.3-1.4-0.7-1.9c-0.4-0.4-1-0.6-1.8-0.6c-0.3,0-0.6,0-0.9,0.1
		c-0.3,0.1-0.5,0.2-0.8,0.4c-0.2,0.2-0.4,0.5-0.6,0.8C62.6,8.1,62.4,8.5,62.4,9z"/>
	<path class="st0" d="M71.7,15.5V4.6h2.5v1.8l0,0c0.2-0.3,0.4-0.5,0.6-0.8C75,5.4,75.3,5.2,75.6,5c0.3-0.2,0.7-0.3,1.1-0.4
		s0.9-0.2,1.4-0.2h0.2l-0.1,2.3h-0.1c-0.1,0-0.1,0-0.2,0s-0.1,0-0.2,0s-0.1,0-0.1,0c-0.4,0-0.8,0-1.1,0.1c-0.3,0.1-0.6,0.2-0.9,0.4
		c-0.3,0.2-0.5,0.4-0.7,0.6s-0.4,0.5-0.6,0.8v6.9H71.7z"/>
	<path class="st0" d="M79.2,14l1.4-1.5c0.2,0.2,0.4,0.3,0.7,0.5c0.2,0.2,0.5,0.3,0.8,0.4c0.3,0.1,0.6,0.2,0.9,0.3s0.7,0.1,1,0.1
		c0.7,0,1.2-0.1,1.6-0.3s0.6-0.5,0.6-1c0-0.2-0.1-0.4-0.2-0.6c-0.1-0.2-0.3-0.3-0.5-0.4c-0.2-0.1-0.5-0.2-0.8-0.3s-0.6-0.1-0.9-0.2
		c-0.3-0.1-0.6-0.2-0.9-0.2c-0.3-0.1-0.6-0.2-1-0.3c-0.3-0.1-0.6-0.3-0.9-0.4c-0.3-0.2-0.5-0.4-0.7-0.6c-0.2-0.2-0.4-0.5-0.5-0.8
		S79.6,8,79.6,7.6c0-0.5,0.1-0.9,0.3-1.3c0.2-0.4,0.5-0.7,0.8-1C81.1,5,81.5,4.8,82,4.6c0.5-0.2,1-0.2,1.6-0.2c0.5,0,1,0,1.4,0.1
		s0.8,0.2,1.2,0.3c0.4,0.1,0.7,0.3,1,0.5s0.6,0.4,0.9,0.6l-1.2,1.6c-0.2-0.2-0.4-0.3-0.7-0.5c-0.2,0-0.5-0.2-0.8-0.3
		c-0.3-0.1-0.5-0.2-0.8-0.3c-0.3-0.1-0.5-0.1-0.8-0.1s-0.6,0-0.9,0.1c-0.2,0.1-0.4,0.1-0.6,0.2C82.2,6.7,82.1,6.8,82,7s0,0.3,0,0.5
		s0.1,0.4,0.2,0.6c0.1,0.2,0.3,0.3,0.6,0.4c0.2,0.1,0.5,0.2,0.7,0.3c0.3,0.1,0.6,0.1,0.9,0.2c0.3,0.1,0.6,0.1,0.9,0.2
		c0.3,0.1,0.6,0.2,1,0.3c0.3,0.1,0.6,0.2,0.9,0.4s0.5,0.4,0.7,0.6c0.2,0.2,0.4,0.5,0.5,0.8s0.2,0.7,0.2,1.1c0,0.6-0.1,1.1-0.4,1.5
		c-0.2,0.4-0.6,0.8-1,1c-0.4,0.3-0.9,0.5-1.4,0.6s-1.1,0.2-1.8,0.2c-0.5,0-1,0-1.5-0.1s-0.9-0.2-1.3-0.4s-0.8-0.3-1.1-0.5
		C79.7,14.5,79.4,14.2,79.2,14z"/>
	<path class="st0" d="M90.2,15.5V0.3h2.5V6c0.2-0.2,0.4-0.4,0.6-0.6c0.3-0.2,0.5-0.4,0.9-0.5c0.3-0.2,0.7-0.3,1.1-0.4
		s0.9-0.2,1.4-0.2s0.9,0.1,1.3,0.2s0.7,0.3,1,0.6c0.3,0.3,0.5,0.6,0.6,1s0.2,0.9,0.2,1.4v7.8h-2.5v-7c0-0.6-0.1-1-0.4-1.3
		s-0.7-0.4-1.2-0.4c-0.6,0-1.1,0.1-1.5,0.4c-0.5,0.3-0.9,0.6-1.4,1v7.5H90.2z"/>
	<path class="st0" d="M102.5,2.7V0.6h2.6v2.1C105.1,2.7,102.5,2.7,102.5,2.7z M102.6,15.5V4.6h2.5v10.8h-2.5V15.5z"/>
	<path class="st0" d="M108.1,19.5V4.6h2.5V6c0.2-0.2,0.4-0.4,0.6-0.6s0.5-0.4,0.8-0.5s0.6-0.3,0.9-0.4s0.7-0.1,1.1-0.1
		c0.6,0,1.2,0.1,1.7,0.3c0.5,0.2,1,0.6,1.4,1c0.4,0.5,0.7,1.1,0.9,1.8c0.2,0.7,0.3,1.5,0.3,2.5c0,0.9-0.1,1.8-0.3,2.5
		c-0.2,0.7-0.5,1.3-0.9,1.8s-0.9,0.8-1.5,1s-1.2,0.3-1.9,0.3c-0.6,0-1.2-0.1-1.7-0.3s-1-0.6-1.4-1v5.3h-2.5V19.5z M110.6,12.3
		c0.3,0.4,0.7,0.8,1.2,1s0.9,0.3,1.4,0.3c1,0,1.6-0.3,2.1-0.9c0.4-0.6,0.6-1.5,0.6-2.7s-0.2-2-0.7-2.6s-1.1-0.9-1.9-0.9
		c-0.3,0-0.5,0-0.8,0.1c-0.2,0.1-0.5,0.2-0.7,0.3c-0.2,0.1-0.4,0.3-0.6,0.4c-0.2,0.2-0.4,0.3-0.5,0.5L110.6,12.3L110.6,12.3z"/>
	<path class="st0" d="M20.1,34.6V19.5h5c0.8,0,1.6,0.1,2.2,0.3c0.7,0.2,1.2,0.4,1.6,0.8c0.4,0.3,0.8,0.8,1,1.3s0.3,1.1,0.3,1.8
		c0,0.6-0.1,1.2-0.3,1.6c-0.2,0.5-0.4,0.9-0.7,1.2c-0.3,0.3-0.7,0.6-1.1,0.8c-0.4,0.2-0.9,0.4-1.5,0.5l3.8,6.9h-1.6l-3.7-6.8h-3.8
		v6.8L20.1,34.6L20.1,34.6z M21.5,26.5H25c0.6,0,1.2,0,1.7-0.1s0.9-0.3,1.2-0.5c0.3-0.2,0.6-0.5,0.8-0.9c0.2-0.4,0.3-0.8,0.3-1.4
		c0-0.5-0.1-1-0.3-1.3c-0.2-0.4-0.4-0.7-0.8-0.9S27.1,21,26.7,21c-0.5-0.1-1.1-0.1-1.7-0.1h-3.5V26.5z"/>
	<path class="st0" d="M31.7,29.2c0-1,0.1-1.8,0.4-2.5c0.3-0.7,0.6-1.3,1.1-1.7s1-0.8,1.5-1c0.6-0.2,1.1-0.3,1.7-0.3
		c0.6,0,1.2,0.1,1.7,0.4c0.5,0.2,1,0.6,1.4,1.1s0.7,1.1,0.9,1.8c0.2,0.7,0.3,1.5,0.3,2.4v0.3H33c0,0.7,0.1,1.3,0.3,1.8
		s0.4,1,0.7,1.3c0.3,0.4,0.7,0.6,1.1,0.8c0.4,0.2,0.8,0.3,1.3,0.3c0.4,0,0.8,0,1.1-0.1s0.6-0.2,0.9-0.4c0.3-0.2,0.5-0.4,0.7-0.6
		c0.2-0.2,0.4-0.5,0.6-0.8l0.9,0.7c-0.2,0.4-0.5,0.7-0.8,1s-0.6,0.6-1,0.8s-0.7,0.4-1.2,0.5c-0.4,0.1-0.9,0.2-1.4,0.2
		c-0.6,0-1.2-0.1-1.8-0.4s-1.1-0.6-1.5-1.1s-0.8-1.1-1-1.8C31.8,30.9,31.7,30.1,31.7,29.2z M33.1,28.4h6.3c0-0.5-0.1-1-0.3-1.4
		c-0.1-0.4-0.3-0.8-0.6-1.1c-0.3-0.3-0.6-0.6-0.9-0.7c-0.4-0.2-0.8-0.3-1.3-0.3c-0.4,0-0.8,0.1-1.1,0.2c-0.4,0.1-0.7,0.4-1,0.7
		c-0.3,0.3-0.5,0.7-0.7,1.1C33.3,27.2,33.2,27.8,33.1,28.4z"/>
	<path class="st0" d="M41.8,23.8h1.5l1.5,5.3c0.1,0.3,0.2,0.7,0.3,1s0.2,0.6,0.2,0.9c0.1,0.3,0.2,0.6,0.2,0.9c0.1,0.3,0.2,0.6,0.3,1
		l0,0c0.1-0.4,0.2-0.7,0.3-1s0.2-0.6,0.2-0.9c0.1-0.3,0.2-0.6,0.2-0.8c0.1-0.3,0.2-0.6,0.3-0.9l1.5-5.3h1.3l1.5,5.4
		c0.1,0.3,0.2,0.6,0.3,0.9s0.1,0.6,0.2,0.8c0.1,0.3,0.1,0.5,0.2,0.8c0.1,0.3,0.2,0.6,0.3,1l0,0c0.1-0.4,0.2-0.7,0.3-1
		s0.2-0.6,0.2-0.8c0.1-0.3,0.2-0.5,0.2-0.8c0.1-0.3,0.2-0.6,0.3-0.9l1.5-5.5H56l-3.3,10.8h-1.3L49,25.9h-0.1l-2.5,8.9h-1.2
		L41.8,23.8z"/>
	<path class="st0" d="M56.7,32.1c0-0.5,0.1-1,0.4-1.5c0.2-0.5,0.7-0.9,1.2-1.3c0.6-0.4,1.3-0.7,2.2-1s2.1-0.5,3.4-0.8V27
		c0-0.8-0.2-1.3-0.6-1.7c-0.4-0.4-0.9-0.5-1.6-0.5c-0.4,0-0.8,0-1.2,0.1s-0.7,0.2-1,0.4s-0.6,0.3-0.9,0.5c-0.3,0.2-0.6,0.4-0.9,0.7
		L57,25.6c0.3-0.3,0.7-0.6,1-0.8c0.4-0.2,0.7-0.5,1.1-0.6c0.4-0.2,0.8-0.3,1.3-0.4s0.9-0.1,1.5-0.1s1.1,0.1,1.6,0.2
		c0.4,0.2,0.8,0.4,1.1,0.7c0.3,0.3,0.5,0.7,0.6,1.1s0.2,0.9,0.2,1.4V32c0,0.7,0,1.2,0.1,1.6c0,0.4,0.1,0.8,0.2,1h-1.5
		c-0.1-0.2-0.1-0.5-0.2-0.7c0-0.2-0.1-0.5-0.1-0.8c-0.6,0.6-1.3,1-2,1.3s-1.5,0.4-2.3,0.4c-1,0-1.7-0.2-2.3-0.7
		C56.9,33.6,56.7,32.9,56.7,32.1z M58.1,31.9c0,0.6,0.2,1,0.5,1.3s0.8,0.4,1.4,0.4c0.8,0,1.5-0.1,2.1-0.4c0.7-0.3,1.3-0.7,1.8-1.2
		v-3.3c-1.1,0.2-2.1,0.4-2.9,0.6c-0.8,0.2-1.4,0.5-1.8,0.8c-0.4,0.3-0.8,0.6-0.9,0.9C58.2,31.2,58.1,31.6,58.1,31.9z"/>
	<path class="st0" d="M68.6,34.6V23.8H70V26l0,0c0.2-0.3,0.4-0.6,0.7-0.9c0.3-0.3,0.6-0.5,0.9-0.7s0.7-0.4,1.2-0.5
		c0.4-0.1,0.9-0.2,1.4-0.2h0.2L74.3,25c-0.1,0-0.1,0-0.2,0S74,25,74,25h-0.1c-0.9,0-1.7,0.2-2.3,0.7c-0.7,0.5-1.2,1.1-1.6,2v7
		L68.6,34.6L68.6,34.6z"/>
	<path class="st0" d="M75.5,29.2c0-0.9,0.1-1.8,0.3-2.5c0.2-0.7,0.6-1.3,1-1.7c0.4-0.5,0.9-0.8,1.4-1c0.6-0.2,1.2-0.3,1.8-0.3
		c0.3,0,0.7,0,1,0.1s0.6,0.2,0.9,0.3c0.3,0.1,0.6,0.3,0.8,0.5c0.3,0.2,0.5,0.4,0.7,0.7v-5.8h1.4V32c0,0.7,0,1.2,0.1,1.6
		c0,0.4,0.1,0.8,0.2,1h-1.5c-0.1-0.2-0.1-0.4-0.2-0.7s-0.1-0.6-0.1-0.9c-0.2,0.2-0.5,0.5-0.7,0.7s-0.5,0.4-0.8,0.6
		c-0.3,0.2-0.6,0.3-1,0.4c-0.3,0.1-0.7,0.1-1.1,0.1c-0.6,0-1.2-0.1-1.7-0.3s-1-0.6-1.4-1c-0.4-0.5-0.7-1-0.9-1.7
		C75.6,31,75.5,30.2,75.5,29.2z M76.9,29.2c0,0.7,0.1,1.4,0.3,1.9c0.2,0.5,0.4,1,0.7,1.4c0.3,0.4,0.6,0.6,1,0.8s0.8,0.3,1.3,0.3
		c0.3,0,0.6,0,0.9-0.1s0.6-0.2,0.9-0.4s0.5-0.3,0.8-0.6c0.3-0.2,0.5-0.5,0.8-0.7v-5.2c-0.5-0.6-1.1-1-1.6-1.3s-1.1-0.5-1.7-0.5
		c-0.5,0-0.9,0.1-1.3,0.3c-0.4,0.2-0.7,0.4-1,0.8s-0.5,0.8-0.7,1.4C77,27.8,76.9,28.5,76.9,29.2z"/>
	<path class="st0" d="M87.3,32.9l0.9-0.8c0.4,0.5,0.9,0.9,1.4,1.1c0.5,0.3,1.2,0.4,1.9,0.4c0.9,0,1.6-0.2,2.1-0.5s0.7-0.8,0.7-1.4
		c0-0.3-0.1-0.6-0.2-0.8c-0.1-0.2-0.3-0.4-0.5-0.6s-0.5-0.3-0.9-0.4s-0.8-0.3-1.3-0.4c-0.6-0.2-1.1-0.4-1.6-0.5s-0.9-0.3-1.2-0.6
		c-0.3-0.2-0.6-0.5-0.7-0.8c-0.2-0.3-0.2-0.7-0.2-1.2c0-0.4,0.1-0.8,0.2-1.1c0.2-0.3,0.4-0.6,0.7-0.9s0.7-0.5,1.1-0.6
		c0.5-0.1,1-0.2,1.6-0.2c0.5,0,0.9,0,1.3,0.1s0.7,0.2,1.1,0.3c0.3,0.1,0.6,0.3,0.9,0.5s0.5,0.4,0.8,0.6L94.6,26
		c-0.4-0.4-0.9-0.7-1.4-1c-0.5-0.2-1.1-0.4-1.8-0.4c-0.4,0-0.8,0-1.1,0.1c-0.3,0.1-0.5,0.2-0.7,0.4c-0.2,0.1-0.3,0.3-0.4,0.5
		C89.1,26,89,26.2,89,26.4c0,0.3,0,0.5,0.1,0.7s0.3,0.4,0.5,0.5s0.5,0.3,0.8,0.4s0.7,0.2,1.2,0.4c0.7,0.2,1.3,0.4,1.8,0.5
		c0.5,0.2,0.9,0.4,1.3,0.6c0.3,0.3,0.6,0.6,0.8,0.9c0.2,0.4,0.3,0.8,0.3,1.3c0,0.5-0.1,0.9-0.3,1.3c-0.2,0.4-0.5,0.7-0.9,1
		s-0.8,0.5-1.3,0.6s-1.1,0.2-1.7,0.2c-0.5,0-0.9,0-1.4-0.1c-0.4-0.1-0.8-0.2-1.2-0.4c-0.4-0.2-0.7-0.4-1-0.6
		C87.8,33.4,87.5,33.2,87.3,32.9z"/>
</g>
</svg>
