<?xml version="1.0" encoding="utf-8"?>
<!-- Generator: Adobe Illustrator 23.1.1, SVG Export Plug-In . SVG Version: 6.00 Build 0)  -->
<svg version="1.1" id="Layer_1" xmlns="http://www.w3.org/2000/svg" xmlns:xlink="http://www.w3.org/1999/xlink" x="0px" y="0px"
	 viewBox="0 0 94 39" style="enable-background:new 0 0 94 39;" xml:space="preserve">
<style type="text/css">
	.st0{fill:#01175A;}
</style>
<title>amex-membershiprewards-logo-footer_FR</title>
<desc>Created with Sketch.</desc>
<g id="Symbols">
	<g id="OptionA_x2F_footer_x5F_FR" transform="translate(-1174.000000, -28.000000)">
		<g id="amex-membershiprewards-logo-footer_FR" transform="translate(1174.000000, 28.000000)">
			<path id="privilèges" class="st0" d="M5.5,36.9H3.2V23.1h2.3v1.3C6.2,23.7,7.2,23,8.7,23c2.3,0,4,1.7,4,5.2s-1.7,5.2-4.3,5.2
				c-1.1,0-2.1-0.4-2.9-1.3V36.9z M7.9,31.5c1.8,0,2.5-1.1,2.5-3.3c0-2.1-0.9-3.2-2.4-3.2c-1,0-1.9,0.6-2.4,1.3v4
				C6.1,31,7,31.5,7.9,31.5z M17.4,33.2h-2.3v-10h2.3v1.6l0,0c0.6-1,1.7-1.8,3.6-1.8h0.2l-0.1,2.1c-0.1,0-0.5,0-0.6,0
				c-1.5,0-2.4,0.7-3.1,1.8V33.2z M25.6,33.2h-2.3v-10h2.3V33.2z M25.7,21.4h-2.4v-2h2.4V21.4z M33.6,33.2h-2.4l-3.6-10H30l2.5,7.4
				l0,0l2.4-7.4h2.2L33.6,33.2z M41.5,33.2h-2.3v-10h2.3V33.2z M41.5,21.4h-2.4v-2h2.4V21.4z M46.9,33.2h-2.3v-14h2.3V33.2z
				 M54.3,33.4c-2.5,0-4.8-1.5-4.8-5.2c0-3.8,2.7-5.2,4.8-5.2c2.2,0,4.4,1.3,4.4,5.4v0.5h-6.8c0.1,1.8,1.2,2.6,2.7,2.6
				c1.3,0,2.1-0.4,2.8-1.2l1.2,1.2C57.4,32.7,56.1,33.4,54.3,33.4z M51.8,27.2h4.7c-0.1-1.5-0.9-2.3-2.3-2.3
				C53.1,24.8,52,25.5,51.8,27.2z M53.7,22.1L50.9,19h2.5l1.8,3.1H53.7z M64.8,37c-3.5,0-4.8-1-4.8-2.5c0-1,0.6-1.7,1.6-2.1
				c-0.5-0.3-0.8-0.7-0.8-1.2c0-0.8,0.6-1.4,1.4-1.8c-1-0.6-1.6-1.7-1.6-2.9c0-2.1,1.6-3.6,4.2-3.6c1.4,0,2.4,0.5,3.1,1.1
				c0.6-0.5,1.7-0.9,2.5-1v1.9c-0.5,0-1.1,0.1-1.8,0.3c0.2,0.4,0.4,0.8,0.4,1.4c0,2.1-1.6,3.6-4.2,3.6c-0.6,0-0.9-0.1-1.4-0.2
				c-0.3,0.2-0.5,0.4-0.5,0.6c0,0.4,0.3,0.5,1.2,0.6l1.8,0.1c3,0.2,4.1,1,4.1,2.7C70,36,67.9,37,64.8,37z M64.8,28.5
				c1.3,0,2-0.7,2-1.9c0-1.2-0.7-1.9-2-1.9c-1.3,0-2,0.7-2,1.9S63.6,28.5,64.8,28.5z M65.2,35.4c1.7,0,2.8-0.5,2.8-1.2
				s-0.5-1-2.5-1.1L63.6,33c-0.2,0-0.4,0-0.6-0.1c-0.7,0.3-0.9,0.8-0.9,1.3C62.1,35.1,63.1,35.4,65.2,35.4z M76.3,33.4
				c-2.5,0-4.8-1.5-4.8-5.2c0-3.8,2.7-5.2,4.8-5.2c2.2,0,4.4,1.3,4.4,5.4v0.5h-6.8c0.1,1.8,1.2,2.6,2.7,2.6c1.3,0,2.1-0.4,2.8-1.2
				l1.2,1.2C79.5,32.7,78.1,33.4,76.3,33.4z M73.9,27.2h4.7c-0.1-1.5-0.9-2.3-2.3-2.3C75.1,24.8,74.1,25.5,73.9,27.2z M86.7,33.4
				c-1.8,0-3.5-0.7-4.4-1.6l1.3-1.4c0.8,0.6,1.9,1.2,3.1,1.2s2-0.3,2-1.2c0-0.8-1-1.1-2.2-1.3c-1.7-0.4-3.8-0.8-3.8-3.2
				c0-1.8,1.5-2.9,3.7-2.9c1.9,0,3.1,0.5,4.1,1.4l-1.1,1.5c-0.7-0.6-1.9-1.1-2.8-1.1c-1.3,0-1.7,0.5-1.7,1c0,0.8,1,1.1,2.2,1.3
				c1.7,0.4,3.8,0.8,3.8,3.1C90.9,32.4,89,33.4,86.7,33.4z"/>
			<path id="Points-" class="st0" d="M17.7,15.2v-14h4.6c3,0,4.9,1.2,4.9,3.8c0,2.8-2.1,4-5,4H19v6.2H17.7z M19,7.9h3.3
				c2.3,0,3.6-0.7,3.6-2.7c0-1.9-1.3-2.6-3.6-2.6h-3.2L19,7.9L19,7.9z M32.8,15.4c-2.4,0-4.5-1.9-4.5-5.2S30.4,5,32.8,5
				c2.4,0,4.5,1.8,4.5,5.2S35.2,15.4,32.8,15.4z M32.8,14.3c2,0,3.2-1.7,3.2-4.1c0-2.2-1.1-4-3.2-4c-2,0-3.2,1.7-3.2,4
				C29.6,12.5,30.7,14.3,32.8,14.3z M40.2,15.2V5.3h1.3v9.9H40.2z M40.2,3V1.6h1.4V3H40.2z M45,15.2V5.3h1.3v1.6
				c1-0.9,2.2-1.8,3.8-1.8c2,0,3,1.1,3,2.9v7.2h-1.3V8.3c0-1.4-0.6-2.1-2-2.1c-1.3,0-2.4,0.7-3.5,1.7v7.3C46.3,15.2,45,15.2,45,15.2
				z M59.6,15.4c-1.9,0-2.6-0.7-2.6-2.5V6.4h-1.7V5.3H57V1.7h1.3v3.6h2.6v1.1h-2.6v6.2c0,1.1,0.3,1.6,1.6,1.6c0.4,0,0.8,0,1-0.1v1.1
				C60.6,15.3,60.1,15.4,59.6,15.4z M66.6,15.4c-1.8,0-3.1-0.8-3.9-1.8l0.8-0.8c0.8,0.9,1.7,1.4,3.1,1.4c1.7,0,2.6-0.6,2.6-1.7
				s-0.8-1.5-2.7-2C64.2,9.9,63,9.3,63,7.6C63,6.2,64.2,5,66.4,5c1.7,0,2.8,0.6,3.7,1.4l-0.7,0.9c-0.8-0.8-1.7-1.2-2.9-1.2
				c-1.5,0-2.2,0.7-2.2,1.5c0,1,0.7,1.4,2.4,1.8c2.5,0.6,3.8,1.2,3.8,3.1S68.9,15.4,66.6,15.4z M73.1,9.9V8.7h4.2v1.1L73.1,9.9
				L73.1,9.9z"/>
		</g>
	</g>
</g>
</svg>
