<?xml version="1.0" encoding="utf-8"?>
<!-- Generator: Adobe Illustrator 23.1.1, SVG Export Plug-In . SVG Version: 6.00 Build 0)  -->
<svg version="1.1" id="Layer_1" xmlns="http://www.w3.org/2000/svg" xmlns:xlink="http://www.w3.org/1999/xlink" x="0px" y="0px"
	 viewBox="0 0 181 52" style="enable-background:new 0 0 181 52;" xml:space="preserve">
<style type="text/css">
	.st0{fill:#FFFFFF;}
	.st1{fill:#006FCF;}
</style>
<title>axp_bbl_alt_mr_rgb_smsc</title>
<desc>Created with Sketch.</desc>
<g id="Symbols">
	<g id="OptionA_x2F_Nav" transform="translate(-135.000000, -17.000000)">
		<g id="axp_bbl_alt_mr_rgb_smsc" transform="translate(135.000000, 17.000000)">
			<polygon id="Rectangle-path" class="st0" points="0,0 52,0 52,52 0,52 			"/>
			<g id="axp_bb_alt_logo_sm_noreg_cmyk_pe">
				<path id="Shape" class="st1" d="M48.1,34.2l3.9,4v-8L48.1,34.2L48.1,34.2z M21.7,27.3v13.9h11.7v-3h-8.2v-2.5h7.9v-2.9h-7.9
					v-2.5h8.1v-2.9L21.7,27.3L21.7,27.3z M46.5,27.3l-4.3,4.5L38,27.3h-4.6l6.6,7l-6.6,6.9h4.5l4.3-4.6l4.3,4.6h4.6l-6.6-7l6.6-6.9
					C51.1,27.3,46.5,27.3,46.5,27.3z M24,15.9l0.8-2.1l0.8,2.1l1.3,3.2h-4.3L24,15.9L24,15.9z M46.4,10.9l-2.5,6l-1.2,3l-1.2-3
					l-2.5-6h-5.6v13.9l-6.1-13.9h-4.8l-6.2,13.9h4l1.1-2.7h6.7l1.1,2.7h7.6v-8.4v-2l0.8,2l3.4,8.4h3.1l3.4-8.4l0.8-2v2v8.4H52V10.9
					H46.4z M0,0v52h52v-8.2h-6.9l-3-3.2l-3,3.2H18.9V27.3h-6.7l8.4-19h8l2.3,5v-5h9.6l2.1,5.4l2.2-5.4H52V0H0z"/>
			</g>
		</g>
	</g>
</g>
<g>
	<path class="st0" d="M69,24.4V10h3.2L76,21.4l0,0L79.8,10h3.3v14.4h-2.4V13.7h-0.1c-0.2,0.4-0.4,0.9-0.6,1.4s-0.3,1-0.5,1.5
		l-2.8,7.9h-2.1l-2.7-7.8c-0.1-0.3-0.2-0.5-0.2-0.7c-0.1-0.2-0.1-0.4-0.2-0.7c-0.1-0.2-0.1-0.5-0.2-0.7c-0.1-0.3-0.1-0.6-0.2-0.9
		l0,0v10.8L69,24.4L69,24.4z"/>
	<path class="st0" d="M85,19.2c0-0.7,0.1-1.2,0.2-1.8c0.1-0.5,0.3-1,0.6-1.4c0.2-0.4,0.5-0.7,0.9-1c0.3-0.3,0.7-0.5,1-0.7
		c0.4-0.2,0.7-0.3,1.1-0.4c0.4-0.1,0.8-0.1,1.1-0.1c0.4,0,0.8,0,1.1,0.1c0.4,0.1,0.7,0.2,1.1,0.4c0.3,0.2,0.6,0.4,0.9,0.7
		s0.5,0.6,0.7,1.1c0.2,0.4,0.4,0.9,0.5,1.4s0.2,1.2,0.2,1.9V20h-7.1c0,0.5,0.1,0.9,0.3,1.2c0.1,0.3,0.3,0.6,0.6,0.8
		c0.2,0.2,0.5,0.4,0.9,0.5c0.3,0.1,0.7,0.2,1.1,0.2c0.3,0,0.6,0,0.9-0.1s0.5-0.1,0.8-0.2c0.2-0.1,0.4-0.2,0.6-0.4
		c0.2-0.1,0.4-0.3,0.6-0.5l1.3,1.2c-0.5,0.6-1.2,1.1-1.9,1.4c-0.7,0.3-1.5,0.5-2.5,0.5c-0.6,0-1.3-0.1-1.9-0.3
		c-0.6-0.2-1.1-0.5-1.6-1c-0.5-0.4-0.8-1-1.1-1.7C85.2,21,85,20.2,85,19.2z M87.5,18.2h4.8c-0.1-0.8-0.3-1.4-0.7-1.8
		c-0.4-0.4-0.9-0.6-1.7-0.6c-0.3,0-0.6,0-0.8,0.1c-0.3,0.1-0.5,0.2-0.7,0.4c-0.2,0.2-0.4,0.4-0.6,0.7C87.6,17.4,87.5,17.8,87.5,18.2
		z"/>
	<path class="st0" d="M96.3,24.4V14.1h2.4v1.4c0.2-0.2,0.4-0.4,0.7-0.6c0.2-0.2,0.5-0.4,0.8-0.5s0.6-0.3,1-0.4
		c0.3-0.1,0.7-0.1,1.1-0.1s0.8,0,1.1,0.1c0.3,0.1,0.6,0.2,0.8,0.3c0.2,0.1,0.4,0.3,0.5,0.5s0.3,0.4,0.4,0.7c0.2-0.2,0.4-0.4,0.7-0.6
		c0.3-0.2,0.5-0.4,0.8-0.5c0.3-0.2,0.6-0.3,1-0.4c0.4-0.1,0.7-0.1,1.1-0.1c0.5,0,1,0.1,1.4,0.2c0.4,0.2,0.7,0.4,0.9,0.6
		c0.2,0.3,0.4,0.6,0.5,1c0.1,0.4,0.2,0.8,0.2,1.3v7.4h-2.4v-6.8c0-0.3,0-0.5-0.1-0.7c0-0.2-0.1-0.4-0.2-0.5s-0.3-0.2-0.4-0.3
		c-0.2-0.1-0.4-0.1-0.7-0.1c-0.5,0-0.9,0.1-1.4,0.4s-0.8,0.6-1.3,1v7.1h-2.4v-6.8c0-0.3,0-0.5-0.1-0.7c0-0.2-0.1-0.4-0.2-0.5
		s-0.3-0.2-0.4-0.3c-0.2-0.1-0.4-0.1-0.7-0.1c-0.2,0-0.5,0-0.7,0.1s-0.4,0.2-0.7,0.3c-0.2,0.1-0.4,0.3-0.6,0.4
		c-0.2,0.2-0.4,0.3-0.7,0.5v7.1L96.3,24.4L96.3,24.4z"/>
	<path class="st0" d="M113.8,24.4V10h2.4v5.4c0.2-0.2,0.4-0.4,0.6-0.6c0.2-0.2,0.5-0.4,0.7-0.5c0.3-0.1,0.6-0.3,0.9-0.3
		c0.3-0.1,0.7-0.1,1.1-0.1c0.6,0,1.1,0.1,1.6,0.3s0.9,0.6,1.3,1s0.6,1,0.9,1.7c0.2,0.7,0.3,1.5,0.3,2.3c0,0.9-0.1,1.7-0.3,2.3
		c-0.2,0.7-0.5,1.2-0.9,1.7c-0.4,0.4-0.9,0.8-1.4,1s-1.1,0.3-1.8,0.3c-0.6,0-1.1-0.1-1.6-0.3c-0.5-0.2-1-0.5-1.3-1v1.1h-2.5V24.4z
		 M116.2,21.4c0.3,0.4,0.7,0.7,1.1,1c0.4,0.2,0.9,0.3,1.3,0.3c0.9,0,1.6-0.3,2-0.8c0.4-0.6,0.6-1.4,0.6-2.6c0-1.1-0.2-1.9-0.7-2.5
		c-0.4-0.6-1-0.8-1.8-0.8c-0.2,0-0.5,0-0.7,0.1c-0.2,0.1-0.5,0.2-0.7,0.3c-0.2,0.1-0.4,0.3-0.6,0.4c-0.2,0.2-0.4,0.3-0.5,0.5
		C116.2,17.3,116.2,21.4,116.2,21.4z"/>
	<path class="st0" d="M124.9,19.2c0-0.7,0.1-1.2,0.2-1.8c0.1-0.5,0.3-1,0.6-1.4c0.2-0.4,0.5-0.7,0.9-1c0.3-0.3,0.7-0.5,1-0.7
		c0.4-0.2,0.7-0.3,1.1-0.4c0.4-0.1,0.8-0.1,1.1-0.1c0.4,0,0.8,0,1.1,0.1c0.4,0.1,0.7,0.2,1.1,0.4c0.3,0.2,0.6,0.4,0.9,0.7
		c0.3,0.3,0.5,0.6,0.7,1.1c0.2,0.4,0.4,0.9,0.5,1.4s0.2,1.2,0.2,1.9V20h-7.1c0,0.5,0.1,0.9,0.3,1.2c0.1,0.3,0.3,0.6,0.6,0.8
		c0.2,0.2,0.5,0.4,0.9,0.5c0.3,0.1,0.7,0.2,1.1,0.2c0.3,0,0.6,0,0.9-0.1c0.3-0.1,0.5-0.1,0.8-0.2c0.2-0.1,0.4-0.2,0.6-0.4
		c0.2-0.1,0.4-0.3,0.6-0.5l1.3,1.2c-0.5,0.6-1.2,1.1-1.9,1.4s-1.5,0.5-2.5,0.5c-0.6,0-1.3-0.1-1.9-0.3c-0.6-0.2-1.1-0.5-1.6-1
		c-0.5-0.4-0.8-1-1.1-1.7C125,21,124.9,20.2,124.9,19.2z M127.3,18.2h4.8c-0.1-0.8-0.3-1.4-0.7-1.8s-0.9-0.6-1.7-0.6
		c-0.3,0-0.6,0-0.8,0.1c-0.3,0.1-0.5,0.2-0.7,0.4c-0.2,0.2-0.4,0.4-0.6,0.7C127.5,17.4,127.4,17.8,127.3,18.2z"/>
	<path class="st0" d="M136.1,24.4V14.1h2.4v1.7l0,0c0.2-0.3,0.3-0.5,0.6-0.7c0.2-0.2,0.5-0.4,0.8-0.6c0.3-0.2,0.6-0.3,1-0.4
		c0.4-0.1,0.8-0.2,1.3-0.2h0.2l-0.1,2.2h-0.1c-0.1,0-0.1,0-0.2,0c-0.1,0-0.1,0-0.2,0c-0.1,0-0.1,0-0.1,0c-0.4,0-0.7,0-1.1,0.1
		c-0.3,0.1-0.6,0.2-0.9,0.4c-0.3,0.2-0.5,0.4-0.7,0.6s-0.4,0.5-0.6,0.8v6.5h-2.3V24.4z"/>
	<path class="st0" d="M143.3,23l1.3-1.5c0.2,0.2,0.4,0.3,0.7,0.5c0.2,0.1,0.5,0.3,0.8,0.4s0.6,0.2,0.9,0.3s0.6,0.1,1,0.1
		c0.6,0,1.1-0.1,1.5-0.3c0.4-0.2,0.6-0.5,0.6-0.9c0-0.2-0.1-0.4-0.2-0.5c-0.1-0.1-0.3-0.3-0.5-0.4s-0.4-0.2-0.7-0.3
		c-0.3-0.1-0.6-0.1-0.9-0.2c-0.3-0.1-0.6-0.1-0.9-0.2c-0.3-0.1-0.6-0.2-0.9-0.3c-0.3-0.1-0.6-0.3-0.9-0.4c-0.3-0.2-0.5-0.3-0.7-0.6
		c-0.2-0.2-0.3-0.5-0.5-0.8c-0.1-0.3-0.2-0.6-0.2-1c0-0.5,0.1-0.9,0.3-1.2c0.2-0.4,0.4-0.7,0.8-1c0.3-0.3,0.7-0.5,1.2-0.6
		s1-0.2,1.6-0.2c0.5,0,0.9,0,1.3,0.1c0.4,0.1,0.8,0.2,1.1,0.3s0.7,0.3,0.9,0.5c0.3,0.2,0.6,0.4,0.8,0.6l-1.1,1.6
		c-0.2-0.2-0.4-0.3-0.6-0.4c-0.2-0.1-0.5-0.3-0.8-0.4s-0.5-0.2-0.8-0.2c-0.3-0.1-0.5-0.1-0.7-0.1c-0.3,0-0.6,0-0.8,0.1
		s-0.4,0.1-0.5,0.2s-0.2,0.2-0.3,0.3c-0.1,0.1-0.1,0.3-0.1,0.4c0,0.2,0.1,0.4,0.2,0.5c0.1,0.1,0.3,0.3,0.5,0.4s0.5,0.2,0.7,0.2
		c0.2,0.1,0.5,0.1,0.8,0.2s0.5,0.1,0.8,0.2s0.6,0.2,0.9,0.3c0.3,0.1,0.6,0.2,0.9,0.4c0.3,0.2,0.5,0.3,0.7,0.6
		c0.2,0.2,0.3,0.5,0.5,0.8c0.1,0.3,0.2,0.7,0.2,1.1c0,0.5-0.1,1-0.3,1.4s-0.5,0.7-0.9,1s-0.9,0.5-1.4,0.6s-1.1,0.2-1.7,0.2
		c-0.5,0-0.9,0-1.4-0.1s-0.9-0.2-1.3-0.3c-0.4-0.1-0.8-0.3-1.1-0.5C143.8,23.4,143.5,23.2,143.3,23z"/>
	<path class="st0" d="M153.8,24.4V10h2.4v5.5c0.2-0.2,0.4-0.4,0.6-0.5c0.2-0.2,0.5-0.4,0.8-0.5c0.3-0.2,0.7-0.3,1.1-0.4
		c0.4-0.1,0.8-0.2,1.3-0.2c0.4,0,0.9,0.1,1.2,0.2c0.4,0.1,0.7,0.3,0.9,0.6c0.3,0.3,0.5,0.6,0.6,1s0.2,0.8,0.2,1.3v7.4h-2.4v-6.8
		c0-0.6-0.1-1-0.4-1.3c-0.2-0.3-0.6-0.4-1.2-0.4c-0.5,0-1,0.1-1.5,0.4c-0.5,0.2-0.9,0.6-1.3,1v7.1H153.8z"/>
	<path class="st0" d="M165.5,12.3v-2h2.4v2H165.5z M165.6,24.4V14.1h2.4v10.3C168,24.4,165.6,24.4,165.6,24.4z"/>
	<path class="st0" d="M170.8,28.3V14.1h2.4v1.4c0.2-0.2,0.4-0.4,0.6-0.6c0.2-0.2,0.5-0.4,0.7-0.5c0.3-0.1,0.6-0.3,0.9-0.3
		c0.3-0.1,0.7-0.1,1.1-0.1c0.6,0,1.1,0.1,1.6,0.3s0.9,0.6,1.3,1c0.4,0.4,0.6,1,0.9,1.7c0.2,0.7,0.3,1.5,0.3,2.3
		c0,0.9-0.1,1.7-0.3,2.3c-0.2,0.7-0.5,1.2-0.9,1.7c-0.4,0.4-0.9,0.8-1.4,1s-1.1,0.3-1.8,0.3c-0.6,0-1.1-0.1-1.6-0.3
		c-0.5-0.2-1-0.5-1.3-1v5H170.8z M173.2,21.4c0.3,0.4,0.7,0.7,1.1,1c0.4,0.2,0.9,0.3,1.3,0.3c0.9,0,1.6-0.3,2-0.8
		c0.4-0.6,0.6-1.4,0.6-2.6c0-1.1-0.2-1.9-0.7-2.5c-0.4-0.6-1-0.8-1.8-0.8c-0.2,0-0.5,0-0.7,0.1c-0.2,0.1-0.5,0.2-0.7,0.3
		c-0.2,0.1-0.4,0.3-0.6,0.4c-0.2,0.2-0.4,0.3-0.5,0.5L173.2,21.4L173.2,21.4z"/>
	<path class="st0" d="M69,42.6V28.2h4.8c0.8,0,1.5,0.1,2.1,0.3c0.6,0.2,1.1,0.4,1.6,0.7c0.4,0.3,0.7,0.7,1,1.2
		c0.2,0.5,0.3,1,0.3,1.7c0,0.6-0.1,1.1-0.2,1.5c-0.2,0.4-0.4,0.8-0.7,1.1c-0.3,0.3-0.7,0.6-1.1,0.8s-0.9,0.3-1.4,0.4l3.6,6.6h-1.6
		L73.9,36h-3.6v6.5L69,42.6L69,42.6z M70.3,34.9h3.4c0.6,0,1.1,0,1.6-0.1s0.8-0.2,1.2-0.5c0.3-0.2,0.6-0.5,0.7-0.9
		c0.2-0.4,0.2-0.8,0.2-1.3s-0.1-0.9-0.2-1.3c-0.2-0.3-0.4-0.6-0.7-0.8c-0.3-0.2-0.7-0.4-1.2-0.5s-1-0.1-1.6-0.1h-3.3L70.3,34.9
		L70.3,34.9z"/>
	<path class="st0" d="M80.1,37.5c0-0.9,0.1-1.7,0.4-2.4s0.6-1.2,1-1.7c0.4-0.4,0.9-0.8,1.4-1s1.1-0.3,1.6-0.3c0.6,0,1.1,0.1,1.7,0.3
		c0.5,0.2,1,0.6,1.3,1c0.4,0.4,0.7,1,0.9,1.7c0.2,0.7,0.3,1.4,0.3,2.3v0.3h-7.3c0,0.6,0.1,1.2,0.3,1.7c0.2,0.5,0.4,0.9,0.7,1.2
		c0.3,0.3,0.6,0.6,1,0.8s0.8,0.3,1.2,0.3c0.4,0,0.7,0,1-0.1s0.6-0.2,0.8-0.4c0.3-0.2,0.5-0.4,0.7-0.6c0.2-0.2,0.4-0.5,0.6-0.8
		l0.8,0.7c-0.2,0.4-0.5,0.7-0.8,1s-0.6,0.5-0.9,0.7s-0.7,0.4-1.1,0.5s-0.9,0.2-1.3,0.2c-0.6,0-1.2-0.1-1.7-0.3s-1-0.6-1.4-1
		c-0.4-0.5-0.7-1-1-1.7C80.2,39.1,80.1,38.4,80.1,37.5z M81.5,36.7h6c0-0.5-0.1-0.9-0.3-1.4c-0.1-0.4-0.3-0.8-0.6-1.1
		c-0.2-0.3-0.5-0.5-0.9-0.7c-0.3-0.2-0.8-0.3-1.2-0.3c-0.4,0-0.7,0.1-1.1,0.2c-0.3,0.1-0.7,0.3-0.9,0.6c-0.3,0.3-0.5,0.6-0.7,1.1
		C81.6,35.6,81.5,36.1,81.5,36.7z"/>
	<path class="st0" d="M89.7,32.4h1.4l1.4,5.1c0.1,0.3,0.2,0.6,0.3,0.9c0.1,0.3,0.2,0.6,0.2,0.8c0.1,0.3,0.2,0.6,0.2,0.8
		c0.1,0.3,0.2,0.6,0.3,0.9l0,0c0.1-0.4,0.2-0.7,0.3-1c0.1-0.3,0.2-0.6,0.2-0.8c0.1-0.3,0.1-0.5,0.2-0.8s0.2-0.6,0.2-0.9l1.4-5.1h1.3
		l1.4,5.2c0.1,0.3,0.2,0.6,0.2,0.9c0.1,0.3,0.1,0.5,0.2,0.8s0.1,0.5,0.2,0.8s0.2,0.6,0.2,0.9l0,0c0.1-0.3,0.2-0.7,0.2-0.9
		c0.1-0.3,0.1-0.5,0.2-0.8s0.1-0.5,0.2-0.8s0.2-0.5,0.2-0.8l1.5-5.2h1.3l-3.1,10.2h-1.2l-2.3-8.4h-0.1L94,42.6h-1.2L89.7,32.4z"/>
	<path class="st0" d="M103.9,40.2c0-0.5,0.1-1,0.4-1.4c0.2-0.4,0.6-0.8,1.2-1.2c0.5-0.4,1.3-0.7,2.1-1s2-0.5,3.3-0.7v-0.5
		c0-0.7-0.2-1.2-0.5-1.6c-0.4-0.3-0.9-0.5-1.5-0.5c-0.4,0-0.8,0-1.1,0.1c-0.3,0.1-0.7,0.2-1,0.3s-0.6,0.3-0.9,0.5s-0.6,0.4-0.8,0.7
		l-0.7-0.8c0.3-0.3,0.6-0.5,1-0.8c0.3-0.2,0.7-0.4,1.1-0.6c0.4-0.2,0.8-0.3,1.2-0.4c0.4-0.1,0.9-0.1,1.4-0.1c0.6,0,1.1,0.1,1.5,0.2
		c0.4,0.1,0.8,0.4,1,0.6c0.3,0.3,0.5,0.6,0.6,1s0.2,0.9,0.2,1.4v4.7c0,0.6,0,1.1,0.1,1.5c0,0.4,0.1,0.7,0.2,1H111
		c-0.1-0.2-0.1-0.4-0.2-0.7c0-0.2-0.1-0.5-0.1-0.8c-0.6,0.5-1.2,0.9-1.9,1.2c-0.7,0.3-1.4,0.4-2.2,0.4c-0.9,0-1.6-0.2-2.1-0.7
		S103.9,41,103.9,40.2z M105.2,40c0,0.5,0.2,0.9,0.5,1.2s0.8,0.4,1.4,0.4c0.7,0,1.4-0.1,2-0.4c0.6-0.3,1.2-0.7,1.7-1.2v-3.2
		c-1.1,0.2-2,0.4-2.7,0.6s-1.3,0.5-1.7,0.7c-0.4,0.3-0.7,0.5-0.9,0.9C105.3,39.4,105.2,39.7,105.2,40z"/>
	<path class="st0" d="M115.2,42.6V32.4h1.3v2l0,0c0.2-0.3,0.4-0.6,0.7-0.9c0.3-0.3,0.6-0.5,0.9-0.7s0.7-0.4,1.1-0.5s0.9-0.2,1.4-0.2
		h0.2l-0.1,1.2c-0.1,0-0.1,0-0.2,0s-0.1,0-0.1,0h-0.1c-0.8,0-1.6,0.2-2.2,0.7c-0.6,0.4-1.2,1.1-1.6,1.9v6.7
		C116.5,42.6,115.2,42.6,115.2,42.6z"/>
	<path class="st0" d="M121.7,37.5c0-0.9,0.1-1.7,0.3-2.3c0.2-0.7,0.5-1.2,0.9-1.7c0.4-0.4,0.8-0.8,1.4-1c0.5-0.2,1.1-0.3,1.7-0.3
		c0.3,0,0.6,0,1,0.1c0.3,0.1,0.6,0.2,0.9,0.3c0.3,0.1,0.5,0.3,0.8,0.5c0.2,0.2,0.5,0.4,0.7,0.6v-5.5h1.3v11.9c0,0.6,0,1.1,0.1,1.5
		c0,0.4,0.1,0.7,0.2,1h-1.4c-0.1-0.2-0.1-0.4-0.2-0.7c-0.1-0.3-0.1-0.6-0.1-0.8c-0.2,0.2-0.4,0.4-0.7,0.6c-0.2,0.2-0.5,0.4-0.8,0.5
		s-0.6,0.3-0.9,0.4c-0.3,0.1-0.7,0.1-1.1,0.1c-0.6,0-1.1-0.1-1.7-0.3c-0.5-0.2-1-0.5-1.3-1c-0.4-0.4-0.7-1-0.9-1.7
		C121.9,39.2,121.7,38.4,121.7,37.5z M123.1,37.5c0,0.7,0.1,1.3,0.2,1.8c0.2,0.5,0.4,1,0.7,1.3c0.3,0.3,0.6,0.6,1,0.8
		s0.8,0.2,1.2,0.2c0.3,0,0.6,0,0.9-0.1s0.6-0.2,0.8-0.3c0.3-0.1,0.5-0.3,0.8-0.5c0.2-0.2,0.5-0.4,0.7-0.7v-5c-0.5-0.6-1-1-1.5-1.3
		s-1.1-0.4-1.7-0.4c-0.4,0-0.9,0.1-1.2,0.3c-0.4,0.2-0.7,0.4-1,0.8c-0.3,0.3-0.5,0.8-0.6,1.3C123.2,36.2,123.1,36.8,123.1,37.5z"/>
	<path class="st0" d="M133,41l0.9-0.8c0.4,0.5,0.8,0.8,1.4,1.1c0.5,0.3,1.1,0.4,1.8,0.4c0.9,0,1.5-0.2,2-0.5
		c0.4-0.3,0.7-0.8,0.7-1.3c0-0.3-0.1-0.5-0.2-0.7c-0.1-0.2-0.3-0.4-0.5-0.5c-0.2-0.2-0.5-0.3-0.9-0.4c-0.4-0.1-0.8-0.2-1.3-0.4
		c-0.6-0.2-1.1-0.3-1.5-0.5c-0.4-0.1-0.8-0.3-1.1-0.5s-0.5-0.5-0.7-0.8c-0.1-0.3-0.2-0.7-0.2-1.1c0-0.4,0.1-0.7,0.2-1
		c0.2-0.3,0.4-0.6,0.7-0.9c0.3-0.2,0.7-0.4,1.1-0.6c0.4-0.1,0.9-0.2,1.5-0.2c0.4,0,0.8,0,1.2,0.1s0.7,0.2,1,0.3s0.6,0.3,0.8,0.5
		c0.3,0.2,0.5,0.4,0.7,0.6l-0.8,0.9c-0.4-0.4-0.8-0.7-1.3-0.9s-1-0.3-1.7-0.3c-0.4,0-0.7,0-1,0.1s-0.5,0.2-0.7,0.3s-0.3,0.3-0.4,0.5
		c-0.1,0.2-0.1,0.4-0.1,0.6c0,0.2,0,0.5,0.1,0.6c0.1,0.2,0.2,0.3,0.4,0.5c0.2,0.1,0.5,0.3,0.8,0.4c0.3,0.1,0.7,0.2,1.1,0.3
		c0.6,0.2,1.2,0.4,1.7,0.5c0.5,0.2,0.9,0.3,1.2,0.6c0.3,0.2,0.6,0.5,0.7,0.9c0.2,0.3,0.2,0.8,0.2,1.3s-0.1,0.9-0.3,1.2
		c-0.2,0.4-0.5,0.7-0.8,0.9c-0.4,0.2-0.8,0.4-1.3,0.6c-0.5,0.1-1,0.2-1.6,0.2c-0.5,0-0.9,0-1.3-0.1c-0.4-0.1-0.8-0.2-1.1-0.4
		s-0.6-0.4-0.9-0.6C133.5,41.5,133.2,41.3,133,41z"/>
</g>
</svg>
