<?xml version="1.0" encoding="UTF-8"?>
<svg width="181px" height="52px" viewBox="0 0 181 52" version="1.1" xmlns="http://www.w3.org/2000/svg" xmlns:xlink="http://www.w3.org/1999/xlink">
    <!-- Generator: Sketch 58 (84663) - https://sketch.com -->
    <title>axp_bbl_alt_mr_rgb_smsc</title>
    <desc>Created with Sketch.</desc>
    <g id="Microsite-2019---Creative" stroke="none" stroke-width="1" fill="none" fill-rule="evenodd">
        <g id="02.1---Search" transform="translate(-135.000000, -59.000000)" fill-rule="nonzero">
            <g id="axp_bbl_alt_mr_rgb_smsc" transform="translate(135.000000, 59.000000)">
                <polygon id="Rectangle-path" fill="#FFFFFF" points="0 0 52 0 52 52 0 52"></polygon>
                <g id="axp_bb_alt_logo_sm_noreg_cmyk_pe" fill="#006FCF">
                    <path d="M48.1,34.151 L52,38.194 L52,30.212 L48.1,34.112 L48.1,34.151 Z M21.71,27.3 L21.71,41.158 L33.41,41.158 L33.41,38.194 L25.246,38.194 L25.246,35.698 L33.189,35.698 L33.189,32.76 L25.246,32.76 L25.246,30.238 L33.358,30.238 L33.358,27.3 L21.71,27.3 Z M46.527,27.3 L42.25,31.837 L37.986,27.3 L33.358,27.3 L39.949,34.268 L33.358,41.184 L37.882,41.184 L42.159,36.621 L46.423,41.184 L51.051,41.184 L44.473,34.19 L51.051,27.3 L46.527,27.3 Z M23.985,15.899 L24.817,13.767 L25.649,15.899 L26.949,19.136 L22.659,19.136 L23.959,15.899 L23.985,15.899 Z M46.41,10.881 L43.888,16.9 L42.679,19.877 L41.47,16.9 L39,10.881 L33.41,10.881 L33.41,24.817 L27.3,10.881 L22.49,10.881 L16.328,24.817 L20.345,24.817 L21.463,22.1 L28.184,22.1 L29.302,24.817 L36.894,24.817 L36.894,16.445 L36.894,14.404 L37.7,16.445 L41.132,24.817 L44.2,24.817 L47.632,16.445 L48.451,14.404 L48.451,16.445 L48.451,24.817 L52,24.817 L52,10.881 L46.41,10.881 Z M0,0 L0,52 L52,52 L52,43.784 L45.123,43.784 L42.159,40.56 L39.195,43.784 L18.941,43.784 L18.941,27.3 L12.259,27.3 L20.644,8.255 L28.6,8.255 L30.927,13.299 L30.927,8.255 L40.534,8.255 L42.679,13.637 L44.837,8.255 L52,8.255 L52,0 L0,0 Z" id="Shape"></path>
                </g>
                <path d="M69,23.9748201 L69,10 L72.1911765,10 L76.0514706,21.0917266 L76.0514706,21.0917266 L79.7573529,10 L83,10 L83,23.9748201 L80.6580882,23.9748201 L80.6580882,13.5629496 L80.5808824,13.5629496 C80.3659788,14.0010258 80.1769426,14.4508058 80.0147059,14.9100719 L79.5,16.3453237 L76.7720588,23.9874101 L74.7132353,23.9874101 L72.0625,16.4334532 L71.8308824,15.7410072 L71.625,15.0863309 C71.5563725,14.8681055 71.4920343,14.6288969 71.4319853,14.368705 C71.3719363,14.1085132 71.3033088,13.8105516 71.2261029,13.4748201 L71.2261029,13.4748201 L71.2261029,24 L69,23.9748201 Z" id="Shape" fill="#FFFFFF"></path>
                <path d="M85.0045344,18.4960208 C84.9987819,17.8932983 85.0693385,17.2924979 85.2143004,16.7098279 C85.3257305,16.1977029 85.5087437,15.7062795 85.7572245,15.2519793 C85.9776382,14.8641328 86.252247,14.5142677 86.5716105,14.2144114 C86.8716972,13.9389128 87.2033863,13.7050182 87.558745,13.5183215 C87.8957744,13.3407175 88.2522272,13.2083663 88.6199147,13.1243084 C89.3229549,12.9585639 90.0515529,12.9585639 90.7545932,13.1243084 C91.1070219,13.2064504 91.4473828,13.3389914 91.7664061,13.5183215 C92.094367,13.7058339 92.393877,13.9449317 92.6548272,14.2275452 C92.9413227,14.5397431 93.1787975,14.8989385 93.3581606,15.2913806 C93.56668,15.7552434 93.7200463,16.2449707 93.8147103,16.7492292 C93.9419713,17.3926186 94.0040222,18.0486825 93.999798,18.7061611 L93.999798,19.2709132 L87.2749438,19.2709132 C87.2871811,19.694835 87.3707662,20.1129824 87.5217275,20.5054877 C87.6472037,20.8291163 87.8365683,21.1202568 88.0769907,21.3591828 C88.3114463,21.5861321 88.5892662,21.7563896 88.8913767,21.8582661 C89.2187951,21.9669569 89.5602404,22.0201422 89.9031896,22.0158714 C90.1928204,22.0193917 90.4820891,21.9930006 90.7669324,21.9370688 C91.0305201,21.8872807 91.2874241,21.8034822 91.5319616,21.6875271 C91.750322,21.5854672 91.9572634,21.4577121 92.1489207,21.3066478 C92.3481654,21.1489339 92.5377515,20.9778472 92.7165231,20.7944307 L93.9504413,22.1078078 C93.4500878,22.6975955 92.8410643,23.1714827 92.1612599,23.4999875 C91.422625,23.8439817 90.6229331,24.0142194 89.8168153,23.9990708 C89.2129756,24.0028205 88.6126726,23.9007644 88.0399731,23.6969941 C87.4731961,23.4954868 86.9550327,23.1636715 86.5222537,22.725095 C86.0144581,22.2404056 85.6176887,21.6383755 85.3623706,20.9651697 C85.0957442,20.1740767 84.9742675,19.3358603 85.0045344,18.4960208 Z M87.3243006,17.4715866 L91.9021371,17.4715866 C91.8852619,16.8095594 91.6542681,16.1740116 91.2481604,15.67226 C90.8206281,15.2422317 90.2431053,15.0230318 89.656406,15.0681065 C89.3843993,15.0690636 89.1140578,15.1133329 88.8543591,15.1994442 C88.5950976,15.2861762 88.3555924,15.4292939 88.1510258,15.6197249 C87.9254956,15.8287714 87.7409885,16.0831839 87.6081018,16.3683498 C87.4518567,16.7157744 87.3517411,17.0887435 87.3119614,17.4715866 L87.3243006,17.4715866 Z" id="Shape" fill="#FFFFFF"></path>
                <path d="M97,23.9731061 L97,13.2155374 L99.3476663,13.2155374 L99.3476663,14.6812561 C99.5467149,14.448063 99.7631444,14.2322155 99.9948608,14.035802 C100.243259,13.8279595 100.511158,13.6477197 100.794336,13.4979236 C101.093468,13.3398419 101.408485,13.2180481 101.733403,13.1348557 C102.086566,13.0443598 102.44872,12.9992122 102.81206,13.000386 C103.179786,12.9952996 103.546595,13.0404957 103.903408,13.1348557 C104.178802,13.2091046 104.440472,13.3318341 104.677503,13.4979236 C104.884488,13.6469155 105.064935,13.8335729 105.210487,14.049249 C105.359074,14.2707202 105.482592,14.5099228 105.5785,14.7619379 C105.786491,14.524435 106.01134,14.3041573 106.251074,14.1030368 C106.503566,13.8868715 106.775611,13.6976936 107.06324,13.5382645 C107.366013,13.3716303 107.685191,13.240854 108.014996,13.1483026 C108.371251,13.0494094 108.738069,12.9996925 109.106344,13.000386 C109.539713,12.9986859 109.969745,13.0807083 110.375353,13.2424313 C110.723952,13.3841392 111.03673,13.609698 111.289039,13.9013324 C111.535187,14.1965173 111.717136,14.5453953 111.822023,14.9233014 C111.94502,15.3594472 112.004921,15.8128283 111.999684,16.2679975 L111.999684,23.9462122 L109.715468,23.9462122 L109.715468,16.9134516 C109.71881,16.656344 109.697551,16.3995395 109.652018,16.1469749 C109.617916,15.9507895 109.539549,15.7662521 109.423596,15.6090964 C109.308835,15.466532 109.159715,15.3596401 108.992133,15.2998163 C108.76684,15.2226491 108.530882,15.1862809 108.294178,15.1922407 C107.846103,15.2012269 107.408262,15.3357738 107.02517,15.5822025 C106.571425,15.8725961 106.146296,16.2104594 105.756161,16.5907246 L105.756161,24 L103.357734,24 L103.357734,16.9134516 C103.361076,16.656344 103.339817,16.3995395 103.294284,16.1469749 C103.260182,15.9507895 103.181815,15.7662521 103.065862,15.6090964 C102.951101,15.466532 102.801981,15.3596401 102.634399,15.2998163 C102.409106,15.2226491 102.173148,15.1862809 101.936444,15.1922407 C101.704982,15.1893234 101.474289,15.2210117 101.25118,15.2863694 C101.030141,15.3543498 100.817234,15.4491039 100.616675,15.5687556 C100.395673,15.7008238 100.183655,15.8491018 99.9821707,16.0125053 C99.7664392,16.1873158 99.5633978,16.3755732 99.3476663,16.5772776 L99.3476663,23.986553 L97,23.9731061 Z" id="Shape" fill="#FFFFFF"></path>
                <path d="M114,24.8126119 L114,10 L116.453302,10 L116.453302,15.5914274 C116.635629,15.3752322 116.83521,15.1743933 117.050051,14.9909161 C117.281943,14.7933936 117.535557,14.6232518 117.805933,14.4838177 C118.097189,14.3343329 118.404087,14.2179613 118.720948,14.1368556 C119.076275,14.0458658 119.441714,14.001019 119.808357,14.0034086 C120.383306,14.0002073 120.952528,14.1184064 121.479255,14.3503707 C121.996013,14.5822096 122.45056,14.9344168 122.805364,15.3779123 C123.204697,15.8895668 123.5019,16.4741274 123.680596,17.099378 C123.905134,17.884169 124.012397,18.69821 123.998862,19.5147678 C124.011541,20.3322083 123.899735,21.1467814 123.667335,21.9301577 C123.483688,22.5613892 123.172143,23.1475158 122.752319,23.6516234 C122.362453,24.1001534 121.871296,24.4479616 121.320122,24.6658203 C120.732858,24.8957416 120.106902,25.0090334 119.47683,24.9994377 C118.907536,25.0023307 118.34359,24.8888304 117.819194,24.6658203 C117.308321,24.4362316 116.855154,24.0942129 116.493085,23.6649681 L116.493085,24.852646 L114,24.8126119 Z M116.453302,21.6899532 C116.761825,22.1048866 117.161127,22.4427805 117.620278,22.6774607 C118.029823,22.8927753 118.484334,23.0071193 118.946387,23.011078 C119.716856,23.0824283 120.470738,22.7558639 120.948811,22.1436728 C121.418858,21.3378427 121.631783,20.4062432 121.558821,19.4747338 C121.622818,18.5687515 121.384832,17.6671564 120.882506,16.9125522 C120.438673,16.3393037 119.747535,16.0163953 119.025953,16.045147 C118.774479,16.0428379 118.524105,16.0788311 118.283332,16.1519046 C118.039421,16.2245533 117.803831,16.3229619 117.580494,16.4454879 C117.359383,16.5670159 117.15063,16.7100419 116.957223,16.8725181 C116.772546,17.0238619 116.603697,17.1937748 116.453302,17.3796166 L116.453302,21.6899532 Z" id="Shape" fill="#FFFFFF"></path>
                <path d="M125.000912,18.5157779 C124.995142,17.9108888 125.065915,17.3079286 125.211322,16.723164 C125.323095,16.209198 125.50667,15.7160081 125.755914,15.2600747 C125.977005,14.870834 126.252457,14.5197112 126.572802,14.218777 C126.873811,13.942288 127.206519,13.7075526 127.562969,13.5201848 C127.901034,13.3419423 128.258582,13.2091154 128.627399,13.1247553 C129.332599,12.9584149 130.063436,12.9584149 130.768636,13.1247553 C131.122147,13.2071925 131.463554,13.34021 131.783557,13.5201848 C132.112526,13.7083712 132.412956,13.9483285 132.674708,14.231958 C132.962083,14.5452782 133.200288,14.9057648 133.380202,15.2996177 C133.589362,15.765148 133.743199,16.2566357 133.838154,16.762707 C133.954019,17.3921007 134.007945,18.0326448 133.999056,18.6739497 L133.999056,19.2407321 L127.278296,19.2407321 C127.290571,19.6661778 127.374413,20.0858283 127.525838,20.4797446 C127.6517,20.8045366 127.841646,21.0967237 128.082807,21.3365086 C128.317983,21.5642737 128.596657,21.7351432 128.899695,21.837386 C129.228119,21.9464675 129.570614,21.999844 129.914617,21.9955578 C130.205137,21.9990908 130.495295,21.9726048 130.781013,21.9164719 C131.027997,21.8667184 131.268845,21.7871177 131.498884,21.6792142 C131.717915,21.5767874 131.925492,21.448573 132.117739,21.2969657 C132.317595,21.1386849 132.507764,20.9669831 132.687085,20.7829073 L133.924794,22.1010057 C133.422903,22.6929136 132.812009,23.1685043 132.130116,23.4981901 C131.389212,23.8434208 130.587063,24.0142705 129.778469,23.9990675 C129.172774,24.0028306 128.570626,23.9004076 127.996168,23.6959048 C127.427649,23.4936732 126.907894,23.160665 126.473785,22.720512 C126.0123,22.2409493 125.653445,21.6609617 125.421733,21.020165 C125.130051,20.2224005 124.987114,19.3717576 125.000912,18.5157779 L125.000912,18.5157779 Z M127.327805,17.4876611 L131.882574,17.4876611 C131.865647,16.823254 131.633943,16.1854216 131.226588,15.6818663 C130.797742,15.2502921 130.218445,15.0303042 129.629943,15.075541 C129.357101,15.0765015 129.085929,15.1209299 128.825433,15.2073508 C128.565375,15.2943946 128.325134,15.4380267 128.119938,15.6291423 C127.893715,15.8389403 127.708641,16.0942674 127.575346,16.3804584 C127.431426,16.7315406 127.343578,17.1057564 127.315428,17.4876611 L127.327805,17.4876611 Z" id="Shape" fill="#FFFFFF"></path>
                <path d="M137,24 L137,13.2025766 L139.311475,13.2025766 L139.311475,14.9571579 L139.311475,14.9571579 C139.464843,14.6833092 139.646361,14.4297069 139.852459,14.2013383 C140.075444,13.957743 140.327792,13.7488483 140.602459,13.5804864 C140.912463,13.394906 141.243091,13.2542653 141.586066,13.1620863 C141.988048,13.0514485 142.401158,12.9970301 142.815574,13.0001249 L143,13.0001249 L142.901639,15.3080742 L142.286885,15.3080742 C141.950942,15.3045284 141.616054,15.3499134 141.290984,15.443042 C141.000307,15.5281859 140.72271,15.6600836 140.467213,15.8344486 C140.221966,16.00311 139.998629,16.207414 139.803279,16.4418036 C139.598923,16.6816391 139.417636,16.9439636 139.262295,17.2246168 L139.262295,23.9730064 L137,24 Z" id="Shape" fill="#FFFFFF"></path>
                <path d="M144,22.3698192 L145.315595,20.885544 C145.523783,21.059525 145.743564,21.218928 145.973392,21.3626325 C146.220021,21.5178841 146.479761,21.650924 146.749593,21.7602062 C147.034925,21.8783157 147.329833,21.9714276 147.631042,22.0385078 C147.95076,22.1094201 148.277206,22.1449705 148.604582,22.1445274 C149.131935,22.1699101 149.658155,22.0747675 150.143828,21.8662258 C150.503142,21.6975218 150.72263,21.3237598 150.696378,20.9253014 C150.703052,20.7275837 150.637521,20.5342642 150.512195,20.3819506 C150.373584,20.2205518 150.203391,20.0897145 150.012269,19.9976294 C149.776355,19.8840836 149.52948,19.7952671 149.275535,19.7325802 L148.420399,19.5072885 L147.525794,19.2819967 C147.209284,19.2024304 146.89744,19.1050937 146.591722,18.9904426 C146.290478,18.880416 145.99984,18.7429027 145.723429,18.5796165 C145.471326,18.4265223 145.244872,18.2341899 145.052476,18.0097608 C144.85387,17.7789186 144.697921,17.5141046 144.592018,17.2278659 C144.473157,16.8874513 144.415249,16.5284801 144.42099,16.1676693 C144.409589,15.7088366 144.508909,15.2540717 144.710421,14.8424236 C144.899276,14.4613766 145.168711,14.1266351 145.499778,13.8617417 C145.8653,13.5757003 146.280077,13.3600511 146.723281,13.2256238 C147.239627,13.0702619 147.776297,12.9943089 148.315151,13.000332 C148.755774,13.0006121 149.195683,13.0360629 149.630746,13.1063517 C150.016283,13.1668092 150.395161,13.2644425 150.762158,13.3979058 C151.097237,13.5243722 151.418958,13.6841929 151.722542,13.8749942 C152.02317,14.0599946 152.309076,14.268243 152.577679,14.4978597 L151.419955,16.0881545 C151.212424,15.9252115 150.992479,15.7789825 150.762158,15.6508235 C150.516459,15.5136639 150.26148,15.3940963 149.999113,15.2930071 C149.738004,15.1896399 149.469796,15.1054869 149.1966,15.0412104 C148.946499,14.9816203 148.690548,14.950503 148.433555,14.9484432 C148.150803,14.9425339 147.868308,14.9692121 147.591574,15.027958 C147.417262,15.0796109 147.252741,15.1602353 147.104804,15.2665022 C146.979639,15.3534012 146.879732,15.472339 146.815373,15.6110661 C146.7556,15.7443918 146.724229,15.8888564 146.723281,16.0351447 C146.717673,16.2350168 146.788292,16.4294586 146.920621,16.5784955 C147.072015,16.7428968 147.255704,16.8737763 147.460014,16.9628167 C147.687933,17.0703069 147.925915,17.1546557 148.170436,17.2146134 L149.025572,17.4266527 L149.880709,17.638692 C150.183296,17.7182068 150.499039,17.810974 150.814781,17.9169936 C151.116923,18.0193223 151.40787,18.1525414 151.683074,18.3145673 C151.939212,18.4674248 152.170039,18.6597007 152.367183,18.884423 C152.568118,19.1185401 152.72424,19.3881416 152.827642,19.6795704 C152.94669,20.0245179 153.004581,20.3878695 152.998669,20.7530194 C153.014045,21.256583 152.895979,21.7551833 152.656614,22.1975373 C152.423481,22.6033213 152.099034,22.9483053 151.709386,23.204724 C151.282324,23.4833426 150.810469,23.6851279 150.314855,23.8010846 C149.759216,23.9362641 149.189344,24.0030144 148.617738,23.9998714 C148.145913,24.0025743 147.674799,23.9626571 147.210051,23.8805993 C146.762217,23.8053997 146.321939,23.6900876 145.894457,23.5360354 C145.514379,23.3951672 145.1487,23.2176433 144.802513,23.0059371 C144.511237,22.8262359 144.241893,22.6127378 144,22.3698192 L144,22.3698192 Z" id="Shape" fill="#FFFFFF"></path>
                <path d="M154,24 L154,10 L156.358328,10 L156.358328,15.3225225 C156.542952,15.1299174 156.743348,14.9527378 156.95747,14.7927928 C157.211279,14.5974779 157.48466,14.4284257 157.773324,14.2882883 C158.107528,14.1265722 158.457859,13.999761 158.818637,13.9099099 C159.235418,13.80652 159.663737,13.7556665 160.093408,13.7585586 C160.50099,13.7511775 160.906676,13.8152285 161.291694,13.9477477 C161.637993,14.0700874 161.951789,14.2684431 162.209529,14.5279279 C162.473539,14.7962686 162.67385,15.1194019 162.795924,15.4738739 C162.934243,15.8801677 163.003175,16.3064244 162.999888,16.7351351 L162.999888,23.9369369 L160.692551,23.9369369 L160.692551,17.3783784 C160.736472,16.9266903 160.604219,16.4754759 160.322867,16.1171171 C160.013726,15.8317994 159.596728,15.6896888 159.175573,15.7261261 C158.671829,15.7252173 158.176127,15.8510845 157.735081,16.0918919 C157.273732,16.3560539 156.845799,16.6736024 156.460309,17.0378378 L156.460309,23.9873874 L154,24 Z" id="Shape" fill="#FFFFFF"></path>
                <path d="M166,12.0237877 L166,10 L168,10 L168,12.0237877 L166,12.0237877 Z M166,24 L166,13.7529735 L167.968085,13.7529735 L167.968085,24 L166,24 Z" id="Shape" fill="#FFFFFF"></path>
                <path d="M171,28 L171,13.2547812 L173.453302,13.2547812 L173.453302,14.5952557 C173.635629,14.3780876 173.83521,14.176345 174.050051,13.9920422 C174.281943,13.7936309 174.535557,13.6227235 174.805933,13.4826619 C175.097189,13.3325044 175.404087,13.2156092 175.720948,13.1341385 C176.076275,13.0427393 176.441714,12.9976907 176.808357,13 C177.383306,12.9968753 177.952528,13.1156063 178.479255,13.3486144 C178.996013,13.5814965 179.45056,13.9352887 179.805364,14.3807798 C180.204697,14.8947367 180.5019,15.4819277 180.680596,16.1099918 C180.905134,16.8983143 181.012397,17.7160183 180.998862,18.5362505 C181.011541,19.3573693 180.899735,20.1756079 180.667335,20.9625092 C180.483688,21.5965812 180.172143,22.1853452 179.752319,22.6917212 C179.362453,23.1422695 178.871296,23.4916428 178.320122,23.7104818 C177.732858,23.9414378 177.106902,24.0552393 176.47683,24.0456004 C175.907536,24.0485065 175.34359,23.9344954 174.819194,23.7104818 C174.308321,23.47986 173.855154,23.1363023 173.493085,22.705126 L173.493085,27.9195715 L171,28 Z M173.453302,20.8418665 C173.761825,21.258667 174.161127,21.5980814 174.620278,21.8338176 C175.029823,22.0501011 175.484334,22.1649597 175.946387,22.1689362 C176.716856,22.2406075 177.470738,21.9125737 177.948811,21.2976278 C178.418858,20.4881716 178.631783,19.5523801 178.558821,18.616679 C178.622818,17.7066199 178.384832,16.8009679 177.882506,16.0429681 C177.438673,15.46714 176.747535,15.1427786 176.025953,15.1716597 C175.774479,15.1693401 175.524105,15.2054953 175.283332,15.2788976 C175.039421,15.3518732 174.803831,15.4507246 174.580494,15.573802 C174.359383,15.6958769 174.15063,15.8395465 173.957223,16.0027538 C173.772546,16.1547786 173.603697,16.325456 173.453302,16.5121341 L173.453302,20.8418665 Z" id="Shape" fill="#FFFFFF"></path>
                <path d="M70,43 L70,29.0012244 L74.7927461,29.0012244 C75.5129208,28.9889135 76.2316,29.0694864 76.9300518,29.2408431 C77.496588,29.3760981 78.0295356,29.6205302 78.4974093,29.9596991 C78.9166082,30.2709034 79.2503325,30.6781324 79.4689119,31.145181 C79.7006346,31.6574004 79.8155365,32.2124448 79.8056995,32.7720657 C79.8158218,33.2825806 79.7324827,33.7907709 79.5595855,34.2728354 C79.4065912,34.6853403 79.1685521,35.0630181 78.8601036,35.3826482 C78.5493123,35.6990295 78.18021,35.955716 77.7720207,36.1393388 C77.3224552,36.3412348 76.8478391,36.485373 76.3601036,36.5681301 L80,43 L78.4196891,43 L74.9093264,36.6942452 L71.3341969,36.6942452 L71.3341969,43 L70,43 Z M71.2953368,35.5213748 L74.6632124,35.5213748 C75.1933538,35.5250613 75.7226094,35.4786009 76.2435233,35.3826482 C76.6595969,35.3094073 77.0561516,35.1549717 77.4093264,34.9286339 C77.7255296,34.7218297 77.9766309,34.4336993 78.134715,34.0962743 C78.3084258,33.6978588 78.3923511,33.2678042 78.380829,32.8351233 C78.3979038,32.4020209 78.3137504,31.9707972 78.134715,31.5739723 C77.9773431,31.2466672 77.7309644,30.9675384 77.4222798,30.7668357 C77.0633864,30.5449108 76.6626621,30.3948537 76.2435233,30.3254329 C75.7139309,30.2291108 75.1760436,30.1826543 74.6373057,30.1867063 L71.3341969,30.1867063 L71.2953368,35.5213748 Z" id="Shape" fill="#FFFFFF"></path>
                <path d="M81.0017766,38.4733184 C80.9843457,37.6425476 81.1262549,36.816061 81.4199492,36.0378606 C81.6634732,35.4064667 82.030196,34.8289469 82.4991044,34.3383928 C82.9215068,33.9031111 83.431725,33.5611241 83.9964321,33.3347701 C84.5276162,33.1192081 85.0952367,33.005683 85.6691226,33.0002292 C86.2629708,32.9940563 86.8514127,33.1126284 87.3957708,33.3481518 C87.9197237,33.5895551 88.3811217,33.9465695 88.7447147,34.3919194 C89.1611038,34.9024344 89.472724,35.4888718 89.6619966,36.1181504 C89.8968012,36.8902901 90.0105418,37.6936516 89.9992325,38.5000816 L89.9992325,38.7677143 L82.3911888,38.7677143 C82.3870948,39.3581421 82.4781736,39.945423 82.6609776,40.507327 C82.8130964,40.9964031 83.0605932,41.4510676 83.3894073,41.8454906 C83.681723,42.1832617 84.0456039,42.4528491 84.455073,42.6350072 C84.8792827,42.8219367 85.3399637,42.9133365 85.804017,42.9026399 C86.1635887,42.9041184 86.5218234,42.8591346 86.8696827,42.7688235 C87.178757,42.6868646 87.4741347,42.5606418 87.7464962,42.3941377 C88.0158622,42.2273193 88.2609462,42.0247148 88.4749259,41.7919641 C88.6794062,41.5130814 88.8599004,41.2176459 89.0145035,40.9087761 L89.8778276,41.6046212 C89.6505576,41.9636091 89.3885203,42.2997425 89.0954401,42.6082439 C88.5252827,43.2075435 87.7956735,43.6343872 86.9910876,43.8393544 C86.5499012,43.9482149 86.0967674,44.0021564 85.6421437,44 C85.0355351,44.0027944 84.4345551,43.8844692 83.8750272,43.6520115 C83.3081376,43.412036 82.8015144,43.0510961 82.3911888,42.5948623 C81.9367779,42.0880046 81.5883113,41.4967069 81.3659915,40.8552496 C81.1067044,40.0881265 80.983474,39.2822112 81.0017766,38.4733184 L81.0017766,38.4733184 Z M82.3507205,37.6436569 L88.6098203,37.6436569 C88.5706117,37.1889985 88.4801163,36.7401377 88.3400315,36.3054933 C88.2167517,35.9032058 88.0201517,35.5267548 87.7599856,35.1948175 C87.5127042,34.8853605 87.1994549,34.6340219 86.8427038,34.4588275 C86.4511449,34.2742167 86.021632,34.1825865 85.5881859,34.1911948 C85.2046943,34.1917549 84.8247836,34.2644055 84.4685625,34.405301 C84.1031909,34.5498492 83.7723544,34.7686443 83.4973229,35.0476195 C83.1855388,35.3661716 82.9342116,35.7378831 82.7554037,36.1449137 C82.5627417,36.6240182 82.444487,37.1293522 82.4046783,37.6436569 L82.3507205,37.6436569 Z" id="Shape" fill="#FFFFFF"></path>
                <polygon id="Shape" fill="#FFFFFF" points="90 33 91.3552124 33 92.722973 37.9244332 92.96139 38.8060453 93.1872587 39.6120907 93.4131274 40.418136 93.6640927 41.3123426 93.6640927 41.3123426 93.9276062 40.3677582 94.1409266 39.5743073 94.3542471 38.8060453 94.5926641 37.9370277 95.9353282 33.0125945 97.1901544 33.0125945 98.5328185 38.0503778 98.7586873 38.906801 98.9594595 39.6624685 99.1727799 40.4433249 99.4111969 41.324937 99.4111969 41.324937 99.6496139 40.418136 99.8629344 39.6498741 100.076255 38.906801 100.314672 38.0755668 101.745174 33.0377834 103 33.0377834 99.9633205 42.9874055 98.7084942 42.9874055 96.4623552 34.8010076 96.3745174 34.8010076 94.0907336 43 92.9488417 43"></polygon>
                <path d="M105.000501,41.3431292 C104.996793,40.8332027 105.123965,40.3305327 105.370343,39.8812598 C105.671027,39.3766917 106.094547,38.9528058 106.603152,38.6473883 C107.307424,38.2183764 108.067689,37.8845339 108.8633,37.6549265 C109.997568,37.319662 111.156038,37.0685998 112.32886,36.9038744 L112.32886,36.3539969 C112.379393,35.7521242 112.176504,35.1561764 111.767248,34.7043644 C111.318847,34.3196259 110.731912,34.1264591 110.137201,34.1678986 C109.735963,34.1666333 109.335968,34.2116489 108.945487,34.3020151 C108.587403,34.3837546 108.238633,34.5005777 107.904449,34.6507179 C107.578788,34.7977773 107.267083,34.9728138 106.972994,35.173772 C106.67245,35.3809209 106.384319,35.6048178 106.110028,35.8443543 L105.342948,34.9725974 C105.660929,34.6811888 105.999663,34.4122782 106.35659,34.1678986 C107.090398,33.6698934 107.919928,33.3231125 108.79481,33.1486135 C109.285943,33.0489762 109.786315,32.9995351 110.287878,33.0010854 C110.817839,32.9897787 111.3459,33.0668791 111.849435,33.2290834 C112.676201,33.4947444 113.316506,34.1417316 113.561668,34.9591857 C113.703998,35.4199895 113.773293,35.8994431 113.767136,36.3808202 L113.767136,41.1956011 C113.739651,41.727256 113.739651,42.259932 113.767136,42.7915869 C113.795156,43.1447724 113.873538,43.4923782 114,43.8242837 L112.575422,43.8242837 C112.502088,43.5954517 112.442627,43.3625775 112.397349,43.1268781 C112.347832,42.8524336 112.3249,42.5740232 112.32886,42.295356 C111.743504,42.8313542 111.066605,43.2625989 110.328972,43.5694624 C109.607917,43.8598138 108.834746,44.0057444 108.055125,43.9986351 C107.244253,44.0218016 106.453473,43.7493784 105.836071,43.2341712 C105.290762,42.7522048 104.985906,42.0622618 105.000501,41.3431292 L105.000501,41.3431292 Z M106.370288,41.1687778 C106.335016,41.6452602 106.52725,42.1108494 106.890807,42.4294725 C107.285099,42.7193165 107.767691,42.8705192 108.260594,42.8586452 C108.997182,42.8640743 109.726217,42.7130779 110.397461,42.4160608 C111.070902,42.1131234 111.686927,41.7004398 112.219277,41.1956011 L112.219277,37.8695129 C111.246577,38.0197352 110.28549,38.2348219 109.342725,38.5132719 C108.705904,38.6944495 108.094093,38.9511751 107.520909,39.2777357 C107.132492,39.4920073 106.803352,39.7958542 106.562058,40.1629043 C106.422884,40.4795328 106.370932,40.8263551 106.411381,41.1687778 L106.370288,41.1687778 Z" id="Shape" fill="#FFFFFF"></path>
                <path d="M116,43.9186218 L116,33.203827 L117.392111,33.203827 L117.392111,35.3196599 L117.392111,35.3196599 C117.603228,34.9872308 117.850604,34.6780064 118.12993,34.3973738 C118.411096,34.1137987 118.729379,33.8675457 119.076566,33.6649701 C119.451201,33.4503365 119.853928,33.2860895 120.273782,33.176701 C120.755361,33.0539311 121.251663,32.9946296 121.74942,33.0003816 L122,33.0003816 L121.860789,34.3566847 L121.429234,34.3566847 C120.571142,34.345118 119.730224,34.5913779 119.020882,35.0619623 C118.300212,35.5671561 117.724955,36.2443786 117.350348,37.0286019 L117.350348,44 L116,43.9186218 Z" id="Shape" fill="#FFFFFF"></path>
                <path d="M122.000946,38.5281433 C121.988489,37.714079 122.099119,36.9031469 122.328643,36.1260904 C122.514291,35.4982858 122.818768,34.9170967 123.223507,34.4179638 C123.590027,33.9765232 124.046995,33.6296227 124.559501,33.4037637 C125.086503,33.17124 125.652272,33.0532487 126.223191,33.0568005 C126.537652,33.0544805 126.851098,33.0948435 127.155866,33.1769032 C127.456481,33.2598137 127.747984,33.3761134 128.025523,33.5238664 C128.298283,33.6684027 128.555969,33.8428391 128.79435,34.0443112 C129.027832,34.2399296 129.246928,34.4540627 129.449743,34.6848586 L129.449743,29 L130.710115,29 L130.710115,41.2237805 C130.703851,41.7494997 130.724889,42.2751859 130.773133,42.7984597 C130.800717,43.150907 130.877159,43.4971342 131,43.8260045 L129.638799,43.8260045 C129.575229,43.5981323 129.524722,43.3664012 129.487554,43.1320781 C129.437797,42.8504283 129.412484,42.5645488 129.411932,42.2780148 C129.206304,42.5141437 128.987445,42.7369586 128.756538,42.9452518 C128.522858,43.1546141 128.269449,43.337958 128.000315,43.4923861 C127.720964,43.6528636 127.424873,43.7782632 127.118055,43.8660387 C126.776672,43.9604907 126.424749,44.0053839 126.071947,43.9994861 C125.522594,44.0037715 124.978106,43.8902871 124.471275,43.6658677 C123.984033,43.4332203 123.553067,43.0864293 123.210903,42.6516675 C122.811247,42.1509564 122.511167,41.5699776 122.328643,40.943541 C122.100095,40.161671 121.989502,39.3465141 122.000946,38.5281433 L122.000946,38.5281433 Z M123.261318,38.5281433 C123.249214,39.1690398 123.329975,39.8081135 123.500788,40.4230962 C123.633842,40.9067801 123.851922,41.3595291 124.143578,41.75757 C124.397605,42.0986343 124.726413,42.3689008 125.10146,42.5449096 C125.475277,42.716247 125.87889,42.8026249 126.28621,42.7984597 C126.579897,42.8003543 126.872464,42.7599498 127.155866,42.678357 C127.432505,42.5961493 127.699023,42.4796908 127.9499,42.3313938 C128.209414,42.173983 128.45419,41.990779 128.680916,41.7842595 C128.930112,41.559831 129.165839,41.3191581 129.386724,41.0636436 L129.386724,35.9526088 C128.96068,35.4273832 128.458707,34.9769712 127.899486,34.6181349 C127.407189,34.3249227 126.851034,34.1731089 126.28621,34.1777586 C125.853668,34.1641985 125.423541,34.2507275 125.025838,34.4313086 C124.650791,34.6073174 124.321983,34.8775839 124.067956,35.2186482 C123.778674,35.6163435 123.56469,36.0694726 123.43777,36.553122 C123.305107,37.2104766 123.262658,37.88465 123.311733,38.5548328 L123.261318,38.5281433 Z" id="Shape" fill="#FFFFFF"></path>
                <path d="M134,42.0289821 L134.858303,41.229985 C135.2221,41.6767824 135.662889,42.0514149 136.158763,42.3352643 C136.728051,42.623658 137.357492,42.765366 137.992411,42.7480795 C138.691746,42.7965545 139.389243,42.6295909 139.99512,42.2686813 C140.426375,41.9708477 140.680926,41.4695806 140.671359,40.9370193 C140.679441,40.6748584 140.625922,40.4145435 140.515303,40.177972 C140.39869,39.9522673 140.228813,39.7600036 140.021129,39.618674 C139.748127,39.4366527 139.450053,39.2975057 139.136816,39.2058588 L137.836356,38.8196769 L136.288809,38.326962 C135.882594,38.2098315 135.499637,38.0205203 135.157409,37.767664 C134.870384,37.5522016 134.6384,37.2689681 134.48117,36.9420336 C134.321851,36.5735688 134.24626,36.172888 134.260092,35.7701711 C134.259753,35.4016514 134.339724,35.0376981 134.494175,34.7048416 C134.653453,34.3643432 134.884395,34.0641911 135.170414,33.8259447 C135.494361,33.5574131 135.865012,33.3540861 136.2628,33.2266968 C136.742047,33.0708667 137.242529,32.9944427 137.745324,33.0003143 C138.150802,32.9978182 138.555647,33.0334791 138.954752,33.1068473 C139.302415,33.1722762 139.642401,33.274934 139.96911,33.4131295 C140.271367,33.540532 140.559166,33.7012801 140.827414,33.8925278 C141.085636,34.0815183 141.329122,34.2907756 141.555671,34.5184089 L140.7884,35.4372556 C140.411935,35.0470189 139.971845,34.7270583 139.48794,34.4917757 C138.960658,34.2506517 138.387677,34.1323964 137.810347,34.1455436 C137.463367,34.138083 137.117204,34.1829524 136.782984,34.2787098 C136.53381,34.348149 136.299874,34.4656634 136.09374,34.6249419 C135.762589,34.8792315 135.569433,35.279758 135.573556,35.703588 C135.569509,35.9296863 135.618569,36.1534711 135.716607,36.3561024 C135.820636,36.5562003 135.972826,36.7257927 136.158763,36.8488173 C136.3993,37.0089504 136.662473,37.1302196 136.939039,37.208366 L138.083444,37.5545981 L139.774041,38.0872628 C140.217972,38.2150798 140.636257,38.4224774 141.009478,38.6998273 C141.325003,38.9352323 141.57949,39.2461144 141.75074,39.6053574 C141.930484,40.0243687 142.01497,40.4797022 141.997828,40.9370193 C142.012916,41.3999889 141.909821,41.8589828 141.698722,42.2686813 C141.495957,42.645166 141.211148,42.9687067 140.866428,43.2141612 C140.471618,43.4893326 140.030823,43.6879356 139.565968,43.8000925 C139.043339,43.9365789 138.505746,44.003712 137.966402,43.9998417 C137.528949,44.0006082 137.092773,43.9514777 136.665943,43.8533589 C136.280307,43.7675162 135.9052,43.6379916 135.547547,43.467177 C135.218034,43.3103085 134.908052,43.1135976 134.624221,42.8812457 C134.380961,42.6260559 134.171129,42.3395676 134,42.0289821 L134,42.0289821 Z" id="Shape" fill="#FFFFFF"></path>
            </g>
        </g>
    </g>
</svg>